<svg xmlns="http://www.w3.org/2000/svg" xmlns:xlink="http://www.w3.org/1999/xlink" version="1.1" x="0px" y="0px" viewBox="0 0 100 125" style="enable-background:new 0 0 100 100;" xml:space="preserve"><path d="M75.61,84.38c1.4,0,2.54-1.13,2.54-2.54V54.68h6.67h0.01c2.44,0,4.41-1.98,4.41-4.41c0-1.39-0.65-2.63-1.65-3.44l-8.63-7.48  V26.89c0-1.46-1.18-2.64-2.63-2.64h-5.46c-1.46,0-2.64,1.18-2.64,2.64v3.14L52.89,16.7c-1.66-1.44-4.12-1.44-5.78,0L12.28,46.94  c-1.39,1.21-1.88,3.15-1.24,4.88c0.65,1.72,2.29,2.87,4.13,2.87h6.68v27.16c0,1.41,1.14,2.54,2.54,2.54h15.01V64.63  c0-2.79,2.26-5.05,5.05-5.05h11.11c2.79,0,5.05,2.26,5.05,5.05v19.74H75.61z"/><text x="0" y="115" fill="#000000" font-size="5px" font-weight="bold" font-family="'Helvetica Neue', Helvetica, Arial-Unicode, Arial, Sans-serif">Created by Marcio Silveira</text><text x="0" y="120" fill="#000000" font-size="5px" font-weight="bold" font-family="'Helvetica Neue', Helvetica, Arial-Unicode, Arial, Sans-serif">from the Noun Project</text></svg>