<?xml version="1.0" standalone="no"?>
<!DOCTYPE svg PUBLIC "-//W3C//DTD SVG 20010904//EN"
 "http://www.w3.org/TR/2001/REC-SVG-20010904/DTD/svg10.dtd">
<svg version="1.0" xmlns="http://www.w3.org/2000/svg"
 width="1280.000000pt" height="970.000000pt" viewBox="0 0 1280.000000 970.000000"
 preserveAspectRatio="xMidYMid meet">
<metadata>
Created by potrace 1.15, written by Peter Selinger 2001-2017
</metadata>
<g transform="translate(0.000000,970.000000) scale(0.100000,-0.100000)"
fill="#000000" stroke="none">
<path d="M5715 7819 c-19 -17 -35 -38 -35 -46 0 -13 -3 -13 -15 -3 -9 7 -19
10 -23 6 -4 -4 3 -16 16 -27 13 -10 21 -23 17 -29 -10 -16 -44 7 -51 34 -7 28
-54 55 -54 31 0 -8 -4 -15 -10 -15 -5 0 -10 -7 -10 -15 0 -26 -39 6 -45 37 -9
40 -39 36 -86 -12 -27 -27 -48 -40 -67 -40 -16 0 -33 -5 -40 -12 -9 -9 -12 -9
-12 0 0 22 -64 45 -104 38 -27 -5 -44 -18 -71 -53 -19 -25 -35 -56 -35 -68 0
-29 -6 -33 -35 -27 -16 3 -27 13 -31 28 -4 17 -17 27 -44 35 -53 16 -100 -1
-131 -49 -34 -53 -61 -63 -141 -56 -79 8 -109 -6 -132 -61 -20 -46 -61 -66
-135 -63 -69 3 -108 -18 -124 -68 -13 -40 -34 -62 -73 -76 -28 -10 -33 -16
-28 -32 6 -18 5 -19 -10 -7 -22 19 -20 5 4 -26 11 -14 20 -20 20 -14 0 7 5 9
11 5 8 -4 5 -10 -7 -17 -11 -5 -27 -19 -36 -31 l-18 -21 -6 23 c-8 28 -15 28
-45 -4 -17 -18 -31 -24 -48 -21 -14 3 -41 -4 -60 -14 -20 -10 -53 -19 -73 -19
-25 0 -45 -7 -58 -20 -11 -11 -24 -20 -29 -20 -10 0 -15 -13 -26 -67 -8 -39
-57 -83 -91 -83 -37 0 -89 -25 -108 -51 -9 -13 -16 -40 -16 -60 0 -52 -30 -85
-93 -103 -48 -14 -97 -49 -86 -61 3 -2 18 2 33 10 16 8 34 15 41 15 12 0 25
-21 25 -40 0 -9 -39 -23 -57 -21 -15 2 -17 -18 -4 -38 5 -8 16 -11 26 -8 9 4
13 12 9 19 -5 8 -2 9 10 5 14 -6 17 -3 12 9 -4 10 -1 14 6 11 7 -2 13 -16 13
-31 -1 -18 3 -25 12 -22 7 3 13 1 13 -4 0 -6 7 -10 16 -10 12 0 15 6 10 24 -4
18 -2 23 11 22 10 0 19 7 21 19 2 11 6 27 10 35 7 18 9 29 11 57 1 16 6 21 17
16 11 -4 13 -13 9 -34 -8 -37 2 -38 17 -1 l11 27 7 -35 c4 -19 11 -48 15 -64
6 -21 5 -27 -4 -22 -7 4 -18 2 -26 -4 -8 -6 -20 -8 -27 -4 -7 4 -10 4 -7 0 8
-8 -38 -58 -68 -74 -27 -15 -45 -8 -58 20 -16 35 -33 32 -41 -6 -7 -38 -23
-46 -44 -21 -10 12 -15 12 -36 -2 -15 -9 -24 -11 -24 -4 0 6 -4 11 -10 11 -5
0 -10 -12 -10 -26 0 -22 3 -24 14 -15 18 16 34 -5 16 -22 -9 -9 -17 -5 -35 16
-24 27 -26 27 -59 13 -45 -19 -70 -65 -62 -114 9 -51 -20 -95 -81 -124 -41
-19 -47 -27 -45 -48 2 -13 11 -30 20 -37 24 -18 1 -16 -25 2 -22 16 -22 16
-20 -50 2 -66 2 -67 -38 -100 -105 -89 -98 -77 -90 -161 l7 -74 -36 -36 c-20
-20 -36 -37 -36 -37 0 -1 74 -2 165 -2 150 0 165 2 165 18 0 9 -4 17 -8 17
-11 0 -4 59 11 88 6 13 28 32 49 44 46 26 67 69 61 126 -6 53 13 84 66 112 54
27 71 55 71 114 0 41 5 55 27 78 15 15 35 28 46 28 10 0 34 15 53 34 29 29 34
41 32 75 -2 52 29 87 88 102 54 14 74 36 85 96 11 59 41 88 103 97 33 5 52 15
71 37 27 33 35 59 10 39 -19 -16 -37 -3 -30 21 4 11 2 19 -4 19 -6 0 -11 5
-11 10 0 6 7 10 15 10 8 0 15 -4 15 -10 0 -5 4 -10 9 -10 5 0 8 8 6 18 -2 13
-10 16 -36 14 -26 -2 -37 3 -47 19 -16 25 -11 32 24 34 15 0 29 -6 35 -17 6
-10 21 -18 35 -18 20 0 25 -4 20 -16 -4 -11 1 -10 20 5 18 14 41 21 69 21 54
0 91 28 105 81 14 51 57 79 116 77 47 -2 91 21 103 55 12 30 -6 67 -57 121
-26 28 -37 46 -28 46 8 0 32 10 52 22 l37 22 28 -34 c15 -18 29 -47 31 -64 3
-30 4 -31 60 -34 70 -4 92 7 118 59 25 48 58 63 126 54 27 -3 62 -1 77 4 31
12 60 62 39 69 -23 7 -12 17 26 21 47 5 85 3 145 -5 47 -6 49 -5 86 35 46 50
91 62 139 37 32 -17 37 -13 33 22 -3 19 17 14 29 -8 14 -27 21 -26 70 15 45
38 79 43 120 20 30 -17 44 -19 35 -5 -3 6 4 14 17 19 18 7 26 5 39 -12 10 -12
23 -18 33 -14 13 5 15 15 10 49 -4 24 -13 58 -20 77 -14 33 -11 56 7 46 5 -4
9 -2 9 3 0 11 49 22 55 13 2 -4 0 -24 -5 -44 -11 -52 11 -97 48 -97 15 0 38
-9 52 -20 36 -28 91 -26 137 6 44 30 78 27 133 -11 47 -32 80 -38 110 -21 72
43 108 41 160 -9 32 -31 96 -40 129 -18 36 23 89 11 127 -31 37 -41 72 -52
117 -39 24 7 31 14 29 29 -2 17 -1 17 10 3 13 -15 58 -21 58 -7 0 13 30 9 35
-4 2 -7 6 -25 9 -40 7 -39 14 -48 53 -64 28 -12 41 -13 67 -3 42 15 83 5 110
-28 67 -82 74 -86 128 -80 64 8 101 -10 128 -63 21 -40 54 -70 79 -70 8 0 11
3 7 8 -4 4 -13 7 -19 7 -12 0 -47 61 -62 107 -16 50 -14 68 11 84 13 9 24 23
24 31 0 21 34 12 38 -11 2 -10 0 -16 -5 -13 -4 3 -17 -1 -28 -9 -16 -12 -17
-16 -6 -23 8 -5 11 -16 8 -24 -4 -10 -1 -14 7 -11 7 3 20 -11 31 -35 9 -22 24
-42 31 -45 8 -3 14 -15 14 -27 0 -15 5 -19 15 -15 9 3 15 0 15 -8 0 -8 12 -21
26 -30 14 -10 33 -36 43 -59 25 -56 53 -81 87 -74 35 6 90 -17 108 -46 8 -12
17 -36 21 -53 9 -45 45 -75 96 -80 49 -5 86 -34 97 -76 7 -27 8 -27 36 -13 15
8 34 15 42 15 15 0 37 -34 27 -43 -3 -3 2 -13 11 -23 11 -10 14 -24 10 -38 -4
-11 -3 -18 1 -14 5 4 14 3 22 -4 20 -16 41 5 25 25 -9 11 -7 13 11 13 16 -1
23 5 25 24 2 14 8 42 13 63 12 45 34 51 26 7 -8 -38 10 -40 20 -2 7 28 8 25
34 -78 3 -10 -2 -14 -13 -12 -10 2 -18 -2 -18 -8 0 -5 -6 -10 -13 -10 -7 0
-29 -17 -48 -37 -32 -35 -34 -42 -29 -85 7 -55 41 -98 78 -98 13 0 37 -13 53
-29 24 -24 29 -38 29 -76 0 -45 1 -47 25 -41 20 5 25 3 25 -14 0 -11 -7 -20
-15 -20 -30 0 -14 -22 30 -41 58 -26 75 -51 75 -116 0 -71 15 -98 66 -122 50
-24 58 -42 59 -136 l0 -70 175 2 c96 1 183 2 193 2 27 1 8 29 -39 55 -49 27
-67 73 -53 136 13 57 -11 108 -63 132 -55 26 -68 52 -68 131 0 62 -3 71 -29
98 -16 16 -36 29 -45 29 -8 0 -31 14 -51 31 -20 18 -37 30 -38 28 -1 -2 -7
-13 -13 -23 -6 -11 -16 -22 -22 -24 -14 -4 -16 34 -2 43 6 3 10 21 10 40 0 18
3 41 7 51 6 16 7 16 14 -2 6 -16 8 -15 8 8 1 37 -41 84 -82 92 -19 3 -44 17
-57 31 -13 13 -26 22 -31 19 -4 -2 -5 11 -2 30 11 72 -38 146 -98 146 -45 0
-89 46 -100 105 -12 66 -52 105 -110 105 -51 0 -92 38 -109 100 -17 63 -51 90
-116 90 -45 0 -57 4 -82 30 -17 16 -33 43 -37 60 -4 16 -20 41 -37 55 -25 21
-39 25 -82 23 -64 -3 -98 16 -126 71 -11 22 -32 49 -47 61 -24 19 -35 21 -85
15 -66 -8 -102 8 -133 58 l-19 32 -4 -27 c-5 -44 -21 -32 -16 12 2 22 -1 40
-6 40 -6 0 -10 -8 -10 -18 0 -23 -19 -42 -42 -42 -23 0 -25 48 -3 56 8 4 15
10 15 14 0 5 -22 2 -49 -5 -61 -16 -96 -3 -141 54 -31 39 -91 68 -111 55 -9
-5 27 -84 41 -94 5 -3 10 -16 11 -30 3 -19 12 -27 42 -34 29 -7 37 -14 37 -32
0 -26 -25 -51 -35 -34 -4 7 -17 3 -36 -11 -17 -12 -33 -18 -37 -15 -6 7 -15
92 -16 159 0 40 -11 49 -21 16 -6 -19 -10 -17 -51 20 -24 23 -50 41 -58 41 -8
0 -26 15 -41 33 -15 17 -34 36 -42 40 -30 18 -80 17 -116 -2 -48 -24 -97 -14
-141 28 -17 17 -46 33 -63 37 -26 5 -32 3 -38 -15 -3 -12 -13 -21 -22 -21 -9
0 -13 6 -10 14 4 11 -3 9 -28 -5 -41 -24 -87 -16 -136 25 -41 35 -100 35 -141
1 -37 -32 -100 -34 -143 -5 -20 13 -39 18 -57 14 -14 -3 -29 0 -33 5 -10 17
-22 13 -60 -20z m-540 -109 c3 -5 1 -10 -4 -10 -6 0 -11 5 -11 10 0 6 2 10 4
10 3 0 8 -4 11 -10z m139 -32 c8 -13 7 -21 -2 -30 -11 -11 -16 -9 -28 6 -8 11
-14 26 -14 34 0 18 30 11 44 -10z m1196 -19 c0 -16 4 -19 21 -14 16 5 19 4 14
-5 -4 -7 -8 -26 -7 -41 0 -16 -3 -29 -8 -29 -13 0 -52 81 -46 96 8 21 26 17
26 -7z m-1076 -40 c18 -9 25 -19 24 -35 -1 -13 -7 -24 -13 -25 -5 0 -20 -2
-32 -5 -29 -5 -35 7 -22 45 13 36 10 35 43 20z m1294 -101 c-23 -23 -45 -10
-33 19 8 18 11 27 14 41 1 4 10 -4 20 -17 18 -23 18 -24 -1 -43z m143 25 c8
-9 9 -14 2 -10 -6 4 -13 1 -16 -5 -2 -7 -7 -10 -11 -7 -6 5 2 39 9 39 1 0 9
-8 16 -17z m-96 -33 c3 -5 2 -10 -4 -10 -5 0 -13 5 -16 10 -3 6 -2 10 4 10 5
0 13 -4 16 -10z m35 -5 c0 -8 -4 -15 -10 -15 -5 0 -7 7 -4 15 4 8 8 15 10 15
2 0 4 -7 4 -15z m-2120 -9 c0 -8 -4 -18 -10 -21 -5 -3 -10 3 -10 14 0 12 5 21
10 21 6 0 10 -6 10 -14z m40 -27 c0 -10 -4 -19 -9 -19 -12 0 -23 29 -15 41 8
14 24 0 24 -22z m2580 -16 c0 -13 -3 -13 -15 -3 -8 7 -15 19 -15 27 0 13 3 13
15 3 8 -7 15 -19 15 -27z m-2660 -3 c0 -11 -4 -20 -9 -20 -5 0 -7 9 -4 20 3
11 7 20 9 20 2 0 4 -9 4 -20z m202 5 c0 -5 -5 -11 -11 -13 -6 -2 -11 4 -11 13
0 9 5 15 11 13 6 -2 11 -8 11 -13z m2378 -62 c0 -16 -6 -23 -20 -23 -11 0 -20
-7 -20 -15 0 -9 9 -15 25 -15 23 0 24 -2 13 -20 -14 -22 -57 -27 -75 -9 -13
13 -7 39 15 56 8 7 14 25 14 40 0 15 2 32 5 36 9 15 43 -25 43 -50z m-2572
-45 c0 -21 -3 -38 -7 -38 -8 0 -41 -71 -41 -88 0 -24 -36 -11 -54 19 -24 41
-9 80 40 99 19 8 33 19 32 24 0 6 2 19 7 29 11 27 24 3 23 -45z m2422 37 c25
-27 21 -32 -34 -37 -22 -2 -30 2 -37 20 -6 16 -5 22 6 22 8 0 15 5 15 10 0 18
26 10 50 -15z m310 4 c0 -5 -7 -9 -15 -9 -9 0 -12 6 -9 15 6 15 24 11 24 -6z
m-53 -9 c3 -11 9 -20 14 -20 5 0 9 -4 9 -9 0 -12 -33 -9 -42 4 -12 15 -9 45 3
45 6 0 13 -9 16 -20z m-2442 -30 c3 -5 1 -10 -4 -10 -6 0 -11 5 -11 10 0 6 2
10 4 10 3 0 8 -4 11 -10z m2747 -179 c8 5 29 7 47 6 25 -2 31 -6 30 -22 -3
-40 1 -47 21 -42 26 7 26 -13 1 -44 l-20 -24 -15 37 c-9 21 -16 42 -16 47 0
20 -37 16 -69 -8 -25 -19 -36 -22 -39 -13 -2 7 -10 18 -17 25 -21 20 3 46 35
37 15 -4 34 -4 42 1z m85 -155 c-4 -13 -67 -21 -67 -9 0 18 22 30 46 25 14 -2
23 -10 21 -16z m-3607 -6 c0 -11 -4 -20 -10 -20 -5 0 -10 9 -10 20 0 11 5 20
10 20 6 0 10 -9 10 -20z m3945 -62 c-8 -5 -20 -6 -25 -3 -6 3 -10 1 -10 -6 0
-7 -2 -10 -5 -7 -3 3 -1 18 5 33 10 27 11 27 31 9 17 -15 18 -19 4 -26z m299
-464 c9 -8 16 -21 16 -29 0 -17 -50 -29 -64 -15 -8 8 -6 9 7 4 15 -6 18 -2 17
17 -4 44 0 48 24 23z m-4824 -35 c0 -5 5 -7 10 -4 6 3 10 2 10 -4 0 -5 3 -16
6 -25 4 -11 1 -16 -10 -16 -9 0 -16 5 -16 11 0 5 -4 7 -10 4 -5 -3 -10 -15
-10 -25 0 -25 -62 -74 -72 -57 -17 26 -8 66 18 83 21 15 27 15 34 4 6 -10 10
-7 15 13 7 26 25 38 25 16z m4953 -155 c-4 -10 -9 -12 -15 -6 -12 12 -1 35 12
27 5 -3 6 -13 3 -21z m172 -14 c0 -31 -31 -39 -40 -11 -8 26 2 43 23 39 11 -2
17 -13 17 -28z m-80 -20 c-5 -8 -11 -8 -17 -2 -6 6 -7 16 -3 22 5 8 11 8 17 2
6 -6 7 -16 3 -22z m-5134 -13 c-16 -16 -26 0 -10 19 9 11 15 12 17 4 2 -6 -1
-17 -7 -23z m5178 -20 c8 -10 7 -29 -1 -70 -14 -64 -28 -75 -28 -23 0 19 -5
47 -10 61 -6 15 -8 31 -4 36 8 13 30 11 43 -4z m78 -120 c14 -30 6 -42 -29
-44 -30 -1 -36 15 -16 35 10 10 10 15 -2 22 -12 8 -9 10 11 10 17 0 29 -8 36
-23z m-5547 -77 c0 -5 7 -10 15 -10 18 0 20 -21 4 -37 -8 -8 -16 -6 -30 8 -23
23 -25 49 -4 49 8 0 15 -4 15 -10z m5570 -20 c0 -5 -4 -10 -10 -10 -5 0 -10 5
-10 10 0 6 5 10 10 10 6 0 10 -4 10 -10z m-130 -20 c0 -5 -5 -10 -11 -10 -5 0
-7 5 -4 10 3 6 8 10 11 10 2 0 4 -4 4 -10z m103 -42 c-2 -5 -13 -8 -24 -8 -14
0 -19 -7 -19 -27 l-1 -28 -21 29 c-26 34 -31 66 -11 66 8 0 12 -4 8 -9 -13
-23 17 -20 38 3 l22 25 6 -22 c3 -12 4 -25 2 -29z m-5683 -18 c0 -5 -4 -10 -9
-10 -6 0 -13 5 -16 10 -3 6 1 10 9 10 9 0 16 -4 16 -10z m151 -13 c-10 -9 -11
-8 -5 6 3 10 9 15 12 12 3 -3 0 -11 -7 -18z m-6 -82 c1 -26 -9 -33 -20 -15 -4
6 -10 8 -15 5 -17 -11 -20 28 -3 41 22 16 38 3 38 -31z m5581 -79 c-8 -19 -21
-32 -34 -34 -31 -5 -28 21 5 57 33 35 48 23 29 -23z"/>
<path d="M6862 7683 c-10 -4 -10 -8 -1 -19 16 -20 25 -17 25 6 0 21 -2 22 -24
13z"/>
<path d="M5660 7449 c-261 -27 -790 -169 -808 -218 -8 -23 -24 -31 -49 -25
-25 7 -170 -63 -331 -159 -191 -114 -522 -380 -522 -419 0 -10 -5 -18 -10 -18
-6 0 -9 -6 -8 -12 2 -7 -7 -14 -19 -16 -21 -3 -108 -85 -127 -120 -5 -9 -15
-21 -22 -27 -7 -5 -31 -32 -53 -59 -32 -40 -38 -53 -29 -64 10 -11 8 -13 -7
-10 -15 2 -36 -21 -88 -97 -80 -118 -94 -141 -77 -130 7 4 13 -1 17 -14 7 -29
15 -26 36 11 14 25 15 33 5 39 -10 6 -8 14 10 31 13 13 22 17 22 10 0 -7 5
-10 10 -7 6 3 10 12 10 19 0 8 11 26 25 42 14 16 62 76 107 134 108 140 367
396 501 495 400 298 845 483 1319 550 66 9 107 20 127 34 23 17 30 18 34 7 4
-11 58 -15 269 -19 274 -5 385 -17 578 -61 l105 -24 17 21 17 22 10 -28 c10
-26 31 -38 31 -17 0 6 11 10 24 10 14 0 28 -4 31 -10 8 -12 45 -13 45 -1 0 23
-405 112 -594 130 -127 13 -482 12 -606 0z"/>
<path d="M4462 7290 c0 -14 2 -19 5 -12 2 6 2 18 0 25 -3 6 -5 1 -5 -13z"/>
<path d="M6900 7303 c6 -3 4 -11 -6 -20 -14 -15 -13 -17 17 -30 34 -14 70 -14
80 1 10 13 29 -3 29 -23 0 -13 17 -25 58 -42 222 -89 573 -306 729 -450 12
-11 27 -18 33 -14 5 3 13 -2 16 -12 7 -20 104 -123 115 -123 4 0 6 11 3 25 -4
25 3 31 22 18 6 -5 -17 18 -50 50 -119 114 -358 297 -481 368 -163 93 -323
172 -448 219 -49 19 -53 19 -64 3 -7 -9 -14 -15 -15 -12 -2 2 -8 13 -14 23 -6
11 -16 21 -22 22 -7 1 -8 0 -2 -3z"/>
<path d="M5760 7004 c-14 -2 -65 -9 -115 -15 -230 -28 -574 -128 -620 -179
-11 -12 -25 -18 -36 -15 -24 8 -211 -88 -348 -178 -185 -121 -395 -306 -388
-340 1 -7 -5 -12 -15 -12 -22 0 -49 -25 -135 -129 -57 -68 -72 -91 -61 -98 10
-7 9 -8 -4 -6 -13 2 -37 -25 -81 -91 -59 -87 -63 -96 -49 -112 15 -17 16 -17
30 2 7 11 11 27 8 36 -8 20 11 43 30 36 8 -3 14 0 14 6 0 26 167 228 295 357
206 207 383 334 640 459 232 113 457 183 698 218 63 9 104 21 117 32 15 14 23
15 34 6 9 -8 83 -13 222 -15 211 -3 347 -18 507 -55 66 -16 79 -16 84 -5 7 20
20 17 26 -6 5 -20 27 -28 27 -10 0 6 9 10 19 10 11 0 23 -4 26 -10 8 -12 35
-13 35 -1 0 22 -314 92 -499 110 -95 10 -403 13 -461 5z"/>
<path d="M5778 6901 c-13 -15 -29 -26 -36 -23 -17 5 -15 -18 3 -24 8 -4 13
-10 10 -15 -8 -12 -35 1 -35 16 0 7 -7 19 -16 26 -14 11 -18 10 -30 -5 -11
-16 -16 -17 -29 -6 -8 7 -15 19 -15 26 0 23 -28 16 -61 -17 -27 -27 -36 -30
-68 -25 -114 20 -107 22 -140 -25 -17 -23 -31 -48 -31 -56 0 -21 -17 -15 -44
14 -38 41 -79 36 -126 -16 l-39 -43 -55 7 c-58 8 -71 0 -117 -66 -13 -19 -25
-23 -72 -24 -56 0 -97 -22 -97 -51 0 -19 -41 -54 -63 -54 -13 0 -17 -5 -13
-16 3 -8 2 -12 -4 -9 -6 3 -10 1 -10 -5 0 -6 9 -14 19 -18 19 -7 19 -8 -5 -29
-20 -18 -25 -19 -32 -7 -7 12 -11 12 -26 -5 -10 -11 -24 -17 -32 -14 -8 3 -32
-2 -54 -11 -22 -9 -49 -16 -60 -16 -27 0 -54 -29 -66 -70 -10 -35 -35 -54 -87
-65 -39 -8 -67 -40 -67 -75 0 -36 -30 -68 -70 -76 -35 -7 -74 -44 -47 -44 10
0 17 5 17 10 0 6 7 10 15 10 15 0 49 -66 41 -79 -3 -4 7 -8 21 -9 22 -2 24 0
13 13 -10 13 -9 15 8 15 13 0 21 6 21 18 0 9 2 26 5 37 2 11 5 24 5 28 1 5 6
5 12 2 6 -4 8 -13 5 -21 -3 -8 -1 -14 4 -14 6 0 10 8 11 18 0 9 6 -1 13 -23
11 -37 10 -41 -7 -48 -11 -4 -35 -21 -54 -37 -40 -35 -49 -37 -63 -10 -14 25
-30 26 -30 1 0 -24 -15 -35 -32 -24 -24 15 -58 10 -58 -9 0 -11 5 -15 15 -12
8 4 15 1 15 -5 0 -16 -25 -13 -40 4 -19 22 -35 18 -64 -15 -19 -23 -24 -38
-20 -59 7 -35 -19 -79 -52 -87 -38 -10 -47 -28 -26 -54 16 -20 27 -22 126 -23
117 0 131 6 121 54 -6 27 26 79 49 79 7 0 25 9 40 21 19 15 26 30 26 55 0 39
29 74 60 74 31 0 70 44 70 79 0 33 30 61 66 61 12 0 32 9 45 20 22 19 23 21 6
31 -9 5 -15 14 -13 18 3 5 -6 19 -19 31 -32 30 -33 50 -2 42 12 -3 25 -9 28
-14 15 -22 145 -1 166 28 7 10 13 26 13 35 0 26 39 49 82 49 42 0 83 32 74 57
-3 8 -6 18 -6 23 0 4 -14 23 -31 41 l-30 33 33 17 c33 18 33 18 56 -7 12 -14
22 -33 22 -43 0 -13 10 -20 36 -24 45 -7 73 6 99 46 19 29 26 32 70 32 28 0
60 4 72 8 24 9 40 40 24 45 -6 2 -11 7 -11 12 0 5 40 7 89 4 l90 -4 21 30 c23
32 63 40 101 20 16 -9 19 -7 19 12 1 23 1 23 16 3 10 -14 18 -17 28 -10 65 48
67 49 98 37 23 -8 35 -8 50 1 16 10 21 9 29 -6 8 -14 14 -15 24 -7 12 10 10
38 -9 96 -5 16 0 23 19 32 36 16 38 15 31 -13 -9 -35 3 -75 23 -75 9 0 30 -9
46 -20 38 -25 66 -25 98 0 31 25 57 25 88 1 38 -29 67 -35 94 -17 36 24 78 20
105 -9 24 -26 83 -35 95 -15 12 19 54 10 87 -18 18 -16 41 -32 51 -35 25 -9
70 10 61 25 -6 10 -4 10 7 2 8 -6 26 -9 42 -7 23 3 27 0 27 -21 0 -34 46 -69
80 -61 14 4 30 11 35 16 7 7 1 8 -17 4 -22 -6 -28 -4 -28 8 0 17 34 32 50 22
5 -3 10 -14 10 -25 0 -14 29 -38 34 -28 1 2 10 16 19 31 10 15 15 32 12 37 -3
5 0 12 6 16 12 7 29 -12 29 -33 0 -7 -7 -13 -16 -13 -9 0 -14 -6 -11 -12 2 -7
12 -12 21 -12 16 2 16 1 1 -16 -10 -11 -24 -16 -37 -12 -20 5 -20 4 -3 -22 18
-28 35 -34 100 -38 34 -3 43 -9 68 -45 16 -24 36 -43 45 -42 12 0 13 2 4 6
-16 6 -52 86 -52 114 0 11 7 22 15 25 8 4 15 13 15 21 0 8 5 13 12 11 21 -7
20 -26 -1 -33 -20 -6 -20 -7 7 -48 15 -23 30 -43 35 -45 4 -2 7 -9 7 -16 0 -7
16 -25 35 -40 19 -15 37 -37 41 -49 11 -36 35 -57 66 -57 45 0 67 -17 88 -66
19 -44 36 -56 93 -69 17 -3 32 -16 39 -33 17 -38 15 -37 43 -22 26 14 35 11
39 -12 8 -36 27 -68 42 -68 10 0 14 5 10 15 -3 8 0 14 7 12 7 -1 16 18 21 46
10 49 26 64 26 25 0 -18 2 -20 10 -8 11 18 16 13 23 -27 6 -29 3 -34 -18 -39
-32 -8 -65 -54 -65 -91 0 -37 25 -73 51 -73 31 0 69 -44 69 -81 0 -24 4 -30
15 -25 9 3 15 0 15 -9 0 -8 -5 -15 -12 -15 -8 0 -8 -4 2 -14 8 -8 41 -16 74
-19 l58 -5 -5 33 c-6 37 -2 46 19 38 11 -4 13 -14 9 -34 -7 -31 -11 -30 73
-32 33 0 37 2 40 27 4 33 -22 76 -45 76 -9 0 -27 10 -40 22 -23 21 -23 21 -37
2 -18 -24 -34 -10 -18 16 6 11 9 26 6 34 -8 22 6 42 17 25 7 -11 9 -9 9 6 0
31 -26 63 -58 70 -45 10 -72 39 -72 78 0 46 -33 87 -70 87 -34 0 -70 40 -70
77 0 34 -42 73 -80 73 -36 0 -68 29 -76 70 -9 41 -38 64 -85 66 -40 2 -79 26
-79 50 0 7 -12 26 -26 43 -22 27 -31 30 -71 29 -48 -3 -43 -6 -109 79 -18 23
-27 26 -73 24 -47 -1 -56 2 -81 29 -24 26 -29 28 -33 13 -3 -11 -5 -6 -6 12
l-1 29 -16 -22 c-22 -32 -38 -28 -31 8 6 28 5 29 -19 20 -41 -16 -51 -12 -104
35 -51 45 -101 63 -82 28 7 -11 6 -23 -1 -34 -12 -19 -14 -18 -113 64 -45 37
-95 49 -109 27 -12 -19 -73 -11 -102 14 -38 32 -69 41 -77 21 -3 -8 -10 -15
-16 -15 -6 0 -9 4 -5 9 3 5 -8 3 -24 -5 -26 -13 -34 -13 -64 0 -19 7 -38 19
-41 25 -12 18 -64 12 -106 -11 -38 -22 -39 -22 -77 -4 -62 30 -98 30 -125 -3z
m-278 -107 c0 -8 -4 -14 -10 -14 -12 0 -31 35 -23 44 9 8 33 -14 33 -30z m870
-9 c5 3 8 -8 8 -25 -1 -16 -4 -30 -7 -30 -13 0 -42 60 -35 71 5 8 10 6 16 -5
5 -9 13 -14 18 -11z m310 -49 c0 -9 11 -19 26 -22 18 -5 24 -12 22 -28 -2 -13
-9 -20 -20 -18 -9 1 -19 -2 -23 -8 -3 -5 -12 -10 -19 -10 -9 0 -15 19 -19 58
-2 31 -3 60 0 65 6 11 33 -19 33 -37z m-1082 6 c3 -19 -1 -22 -27 -22 -34 0
-36 2 -20 31 13 26 43 20 47 -9z m916 -18 c7 -19 -12 -47 -26 -38 -6 4 -6 10
0 16 6 6 8 17 5 24 -3 8 -1 14 5 14 5 0 13 -7 16 -16z m96 -14 c0 -5 -4 -10
-10 -10 -5 0 -10 5 -10 10 0 6 5 10 10 10 6 0 10 -4 10 -10z m-1560 -29 c0 -6
-4 -13 -10 -16 -5 -3 -10 1 -10 9 0 9 5 16 10 16 6 0 10 -4 10 -9z m22 -33
c-9 -9 -12 -7 -12 12 0 19 3 21 12 12 9 -9 9 -15 0 -24z m1853 11 c11 -17 -1
-21 -15 -4 -8 9 -8 15 -2 15 6 0 14 -5 17 -11z m-1760 -9 c3 -5 1 -10 -4 -10
-6 0 -11 5 -11 10 0 6 2 10 4 10 3 0 8 -4 11 -10z m-140 -79 c2 -17 1 -31 -4
-31 -4 0 -13 -16 -21 -35 -16 -41 -23 -43 -44 -13 -23 32 -20 47 13 66 17 9
32 26 35 36 7 26 16 16 21 -23z m1925 19 c9 -16 8 -20 -5 -20 -8 0 -15 9 -15
20 0 11 2 20 5 20 2 0 9 -9 15 -20z m30 10 c0 -5 -5 -10 -11 -10 -5 0 -7 5 -4
10 3 6 8 10 11 10 2 0 4 -4 4 -10z m-1780 -30 c0 -5 -2 -10 -4 -10 -3 0 -8 5
-11 10 -3 6 -1 10 4 10 6 0 11 -4 11 -10z m2023 -138 c-4 -8 1 -20 11 -27 9
-7 14 -19 10 -29 -9 -24 -23 -20 -37 12 -17 39 -28 43 -56 20 -23 -17 -26 -18
-29 -4 -2 9 -7 16 -12 16 -5 0 -7 6 -4 13 3 8 26 13 63 13 49 1 58 -1 54 -14z
m7 -103 c0 -5 -11 -9 -25 -9 -24 0 -32 10 -19 22 8 8 44 -3 44 -13z m-2598
-11 c-7 -7 -12 -8 -12 -2 0 14 12 26 19 19 2 -3 -1 -11 -7 -17z m2846 -26 c2
-7 -6 -12 -17 -12 -21 0 -27 11 -14 24 9 9 26 2 31 -12z m210 -344 c16 -16 15
-28 -2 -28 -7 0 -16 9 -19 20 -6 23 3 26 21 8z m-3448 -45 c0 -9 -6 -13 -15
-9 -9 3 -15 0 -15 -9 0 -13 -36 -45 -52 -45 -5 0 -8 11 -8 24 0 26 23 51 39
42 5 -3 11 1 15 9 7 18 36 9 36 -12z m3540 -83 c0 -5 -4 -10 -10 -10 -5 0 -10
5 -10 10 0 6 5 10 10 10 6 0 10 -4 10 -10z m120 -21 c0 -24 -23 -21 -28 4 -2
10 3 17 12 17 10 0 16 -9 16 -21z m-3735 -9 c-3 -5 -11 -10 -16 -10 -6 0 -7 5
-4 10 3 6 11 10 16 10 6 0 7 -4 4 -10z"/>
<path d="M6751 6856 c-10 -12 -6 -16 21 -22 36 -9 35 -9 60 1 13 5 20 0 28
-19 5 -14 15 -26 23 -26 22 0 266 -124 359 -183 89 -56 277 -194 290 -212 4
-5 11 -10 15 -10 4 0 34 -27 66 -60 54 -55 58 -58 52 -31 -6 27 -5 28 12 16
46 -35 -70 79 -137 134 -181 150 -394 282 -602 371 -110 48 -124 52 -135 38
-11 -15 -13 -15 -19 0 -8 21 -18 21 -33 3z"/>
<path d="M6605 6811 c-3 -5 -1 -12 5 -16 5 -3 10 1 10 9 0 18 -6 21 -15 7z"/>
<path d="M8080 6618 c0 -32 19 -47 34 -26 6 8 17 13 24 10 11 -3 12 0 3 17
-13 24 -27 27 -34 9 -4 -10 -8 -9 -16 2 -9 12 -11 10 -11 -12z"/>
<path d="M8001 6564 c0 -11 3 -14 6 -6 3 7 2 16 -1 19 -3 4 -6 -2 -5 -13z"/>
<path d="M8040 6523 c1 -5 19 -28 40 -53 28 -31 40 -40 40 -27 0 20 4 21 31 7
24 -13 27 -55 3 -46 -13 5 -14 3 -7 -6 145 -182 265 -370 362 -567 53 -108 65
-125 86 -126 14 0 25 4 25 10 0 37 -202 407 -245 451 -13 13 -21 25 -18 27 6
7 -67 107 -78 107 -5 0 -9 6 -9 13 0 7 -34 54 -75 104 -64 77 -79 90 -100 85
-17 -3 -27 1 -31 12 -6 16 -24 23 -24 9z"/>
<path d="M8614 6399 c-3 -6 -1 -16 5 -22 8 -8 11 -5 11 11 0 24 -5 28 -16 11z"/>
<path d="M7685 6250 c3 -5 8 -10 11 -10 2 0 4 5 4 10 0 6 -5 10 -11 10 -5 0
-7 -4 -4 -10z"/>
<path d="M4536 6226 c21 -15 30 -14 19 3 -3 6 -14 11 -23 11 -13 0 -13 -2 4
-14z"/>
<path d="M7751 6179 c25 -32 34 -38 38 -26 9 25 45 -6 38 -33 -4 -15 13 -45
62 -111 37 -49 96 -137 131 -195 35 -58 66 -106 69 -108 3 -2 14 -1 23 3 15 5
9 21 -46 111 -35 58 -69 104 -76 102 -7 -2 -10 3 -7 11 6 15 -50 96 -143 211
-42 52 -55 62 -76 58 -14 -2 -24 0 -24 7 0 6 -5 11 -11 11 -6 0 4 -19 22 -41z"/>
<path d="M4188 6053 c-20 -5 -23 -18 -8 -28 6 -3 17 0 25 9 25 24 21 29 -17
19z"/>
<path d="M7480 6044 c0 -21 19 -26 36 -10 17 18 17 18 -13 21 -14 1 -23 -3
-23 -11z"/>
<path d="M3436 5958 c-8 -13 -18 -42 -22 -65 -4 -26 -12 -43 -20 -43 -11 0
-74 -118 -74 -139 0 -4 11 -6 25 -6 23 1 33 16 85 124 33 68 60 125 60 127 0
2 -9 8 -20 14 -16 8 -22 6 -34 -12z"/>
<path d="M7865 5880 c3 -5 8 -10 11 -10 2 0 4 5 4 10 0 6 -5 10 -11 10 -5 0
-7 -4 -4 -10z"/>
<path d="M3836 5743 c-9 -29 -7 -37 8 -39 24 -3 41 23 26 41 -16 20 -27 19
-34 -2z"/>
<path d="M3900 5720 c0 -13 28 -25 38 -16 3 4 0 11 -8 16 -20 13 -30 12 -30 0z"/>
<path d="M1626 5402 c-9 -9 -6 -965 3 -1098 11 -141 25 -178 96 -243 70 -64
169 -107 339 -146 27 -6 28 -5 16 10 -12 15 -12 19 4 30 18 14 27 10 73 -34
17 -16 118 -27 109 -12 -3 5 1 14 9 21 20 16 50 -11 32 -29 -8 -8 3 -11 45
-11 45 0 57 3 61 18 4 16 5 16 6 0 1 -15 9 -17 69 -11 37 3 69 8 72 10 8 7
-23 21 -37 16 -7 -3 -13 1 -13 10 0 8 5 17 11 19 9 3 9 9 1 25 -12 21 -63 40
-81 29 -23 -15 -19 15 6 38 20 19 29 22 36 13 6 -9 10 -9 13 -1 3 8 17 5 41
-7 33 -17 37 -24 38 -56 0 -21 7 -48 16 -60 l16 -23 74 19 c134 35 232 92 297
174 55 69 57 89 57 722 l0 580 -105 0 c-88 0 -105 -2 -102 -15 2 -11 -1 -10
-12 3 -10 13 -24 17 -47 15 -29 -3 -33 -8 -49 -58 -16 -50 -20 -55 -46 -55
-38 0 -54 12 -54 41 0 12 -4 26 -10 29 -5 3 -10 15 -10 26 0 18 -6 20 -87 17
l-88 -3 -3 -202 c-2 -176 0 -203 13 -203 8 0 15 -4 15 -10 0 -5 -7 -7 -15 -4
-13 5 -15 -24 -15 -231 0 -155 3 -234 10 -230 6 3 10 13 10 21 0 8 5 12 10 9
6 -3 13 1 16 9 3 9 12 16 19 16 7 0 18 14 24 31 9 27 14 30 43 27 30 -3 33 -6
33 -35 0 -28 -4 -33 -22 -33 -25 0 -31 15 -10 23 6 3 1 6 -12 6 -16 1 -22 -3
-17 -14 3 -9 -8 -24 -29 -41 -40 -30 -44 -44 -15 -51 19 -5 26 -23 14 -35 -10
-10 -59 8 -60 23 -5 49 -8 14 -13 -134 -6 -162 -7 -170 -30 -188 -30 -25 -92
-25 -122 0 l-24 19 -3 610 c-2 571 -4 611 -20 611 -9 0 -31 3 -49 7 -25 5 -33
2 -43 -15 -12 -24 -33 -19 -23 5 5 13 -24 15 -235 13 -132 0 -243 -4 -246 -7z
m1388 -82 c-14 -13 -17 -12 -35 9 -10 13 -19 29 -19 36 0 25 25 22 47 -4 19
-23 20 -28 7 -41z m-1310 54 c21 -8 21 -50 0 -58 -13 -5 -14 -9 -4 -21 10 -13
9 -15 -9 -15 -37 0 -50 70 -17 92 13 9 11 9 30 2z m67 -44 c6 0 7 -4 4 -10 -3
-5 -10 -10 -15 -10 -12 0 -21 30 -13 43 5 8 9 6 11 -5 2 -10 8 -18 13 -18z
m67 -92 c3 -30 -1 -37 -20 -43 -65 -20 -74 -9 -28 37 17 16 27 34 24 40 -4 6
-1 9 7 6 8 -2 15 -20 17 -40z m314 -100 c-6 -6 -8 -1 -7 14 3 32 7 36 12 14 3
-10 1 -22 -5 -28z m-329 12 c4 -18 2 -20 -16 -14 -28 8 -30 11 -22 23 10 18
32 12 38 -9z m397 -26 c0 -17 -27 -18 -33 -1 -2 6 -2 18 1 25 6 16 32 -4 32
-24z m-106 -19 c3 -9 0 -15 -9 -15 -8 0 -15 7 -15 15 0 8 4 15 9 15 5 0 11 -7
15 -15z m381 -55 c3 -5 1 -10 -4 -10 -6 0 -11 5 -11 10 0 6 2 10 4 10 3 0 8
-4 11 -10z m78 3 c9 -8 -22 -43 -38 -43 -18 0 -28 32 -13 42 16 9 42 10 51 1z
m-453 -22 c7 -14 7 -20 -2 -23 -8 -3 -8 -9 1 -25 15 -29 14 -44 -2 -37 -8 3
-20 -2 -27 -11 -7 -8 -9 -15 -5 -15 3 0 -3 -12 -14 -26 -12 -15 -21 -32 -21
-39 0 -18 -34 -11 -60 13 -13 12 -20 22 -14 22 5 0 3 4 -4 9 -12 7 -11 14 2
40 9 17 23 31 31 31 9 0 23 4 33 9 9 5 25 12 35 15 10 3 16 10 13 15 -8 12 3
41 15 41 4 0 13 -9 19 -19z m-267 -67 c9 -10 -12 -46 -24 -39 -5 4 -9 1 -9 -4
0 -6 4 -11 9 -11 5 0 16 -3 25 -6 12 -5 16 0 16 17 l0 24 24 -25 c19 -19 26
-40 30 -88 6 -59 5 -63 -19 -74 -30 -14 -48 -1 -76 54 -11 21 -24 38 -30 38
-9 0 -69 56 -69 65 0 6 93 54 106 55 6 0 14 -3 17 -6z m182 -201 c8 -28 -5
-30 -28 -3 -20 23 -12 60 8 38 7 -7 16 -23 20 -35z m40 27 c3 -5 1 -10 -4 -10
-6 0 -11 5 -11 10 0 6 2 10 4 10 3 0 8 -4 11 -10z m680 -30 c10 -11 13 -20 7
-20 -7 0 -12 -16 -12 -37 0 -34 -1 -35 -18 -20 -10 10 -26 17 -35 17 -14 0
-15 4 -5 28 25 57 35 62 63 32z m-105 -271 c0 -5 -9 -9 -20 -9 -17 0 -18 -4
-10 -25 5 -14 7 -32 3 -40 -4 -13 -10 -9 -24 15 -21 34 -24 44 -9 35 6 -3 10
1 10 10 0 25 23 45 38 33 6 -6 12 -14 12 -19z m-602 -2 c25 -12 30 -37 7 -37
-7 0 -18 -7 -23 -16 -7 -13 -18 -15 -50 -9 -36 6 -81 35 -54 35 5 0 12 9 15
19 7 30 53 33 105 8z m-248 7 c0 -3 -7 -12 -15 -20 -12 -13 -15 -13 -15 -1 0
7 3 17 7 20 8 8 23 9 23 1z m60 -25 c15 -27 9 -64 -10 -64 -9 0 -17 13 -21 30
-10 53 10 74 31 34z m968 -5 c29 -8 31 -54 2 -61 -24 -6 -26 -19 -5 -27 17 -6
21 -36 4 -36 -5 0 -7 -5 -3 -11 6 -10 -11 -28 -27 -29 -4 0 -12 14 -19 30 -7
17 -16 30 -20 30 -19 0 -18 34 0 57 11 14 20 32 20 39 0 15 12 17 48 8z m-768
-119 c10 -12 10 -15 -1 -15 -28 0 -59 13 -53 21 8 14 40 10 54 -6z m-163 -199
c-3 -8 1 -20 9 -26 18 -16 18 -26 0 -33 -8 -3 -26 5 -41 19 -22 20 -24 26 -13
39 17 19 52 20 45 1z"/>
<path d="M1890 4835 c0 -8 5 -15 10 -15 6 0 10 7 10 15 0 8 -4 15 -10 15 -5 0
-10 -7 -10 -15z"/>
<path d="M2780 4360 c0 -5 5 -10 11 -10 5 0 7 5 4 10 -3 6 -8 10 -11 10 -2 0
-4 -4 -4 -10z"/>
<path d="M3283 5395 c-2 -6 -2 -193 -1 -415 l3 -404 24 -6 c28 -6 41 -30 16
-30 -44 0 -45 -13 -43 -322 l3 -293 305 0 305 0 3 296 2 296 178 6 c198 6 267
17 362 54 88 35 114 55 142 111 21 43 23 63 26 220 3 117 1 172 -7 172 -15 0
-51 41 -45 52 3 4 15 3 26 -3 20 -11 21 -9 15 26 -14 88 -82 157 -191 196
-110 38 -231 49 -576 49 -370 1 -348 1 -459 3 -51 1 -85 -2 -88 -8z m336 -64
c-8 -35 -7 -47 5 -60 9 -10 17 -28 18 -42 3 -21 -2 -24 -31 -27 -36 -4 -51 9
-51 45 0 11 -10 40 -22 62 -17 32 -19 44 -10 53 9 9 12 9 12 0 0 -7 5 -12 10
-12 6 0 10 6 10 14 0 14 48 27 62 16 4 -3 3 -25 -3 -49z m-116 -143 c7 -26 1
-38 -20 -38 -8 0 -28 -8 -44 -17 -26 -16 -58 -11 -32 5 6 4 14 19 18 34 6 24
18 31 61 37 7 0 14 -9 17 -21z m542 -52 c42 -18 55 -58 55 -171 0 -151 -23
-184 -135 -193 l-65 -5 0 192 0 191 55 0 c31 0 71 -6 90 -14z m-441 -76 c8 0
19 -7 26 -15 7 -8 27 -15 44 -16 43 -1 73 -13 57 -23 -9 -6 -9 -11 1 -24 12
-15 11 -16 -4 -4 -9 8 -25 12 -35 10 -9 -2 -27 7 -40 19 -25 26 -59 29 -89 9
-20 -14 -64 -12 -64 3 0 12 23 37 50 54 21 15 25 15 33 2 4 -8 14 -15 21 -15z
m-144 -50 c0 -5 -5 -10 -11 -10 -5 0 -7 5 -4 10 3 6 8 10 11 10 2 0 4 -4 4
-10z m257 -258 c14 -9 13 -92 -1 -92 -5 0 -15 -8 -22 -17 -12 -17 -13 -16 -14
5 0 14 -4 21 -11 17 -6 -5 -8 -22 -4 -47 7 -38 6 -39 -13 -29 -31 16 -35 29
-20 54 10 15 12 33 7 55 -5 26 -4 30 6 22 17 -14 55 8 48 27 -6 14 5 17 24 5z
m-319 -28 c4 -8 27 -21 51 -28 l42 -12 -20 -26 c-11 -14 -17 -28 -14 -32 3 -3
-2 -6 -11 -6 -10 0 -20 9 -23 20 -4 17 -44 40 -50 29 -2 -2 -10 7 -19 20 -16
23 -16 25 1 37 24 18 32 18 43 -2z m-64 -63 c9 -11 8 -13 -4 -9 -8 2 -16 18
-17 34 -1 18 0 22 4 9 3 -11 10 -26 17 -34z m861 -51 c-3 -6 -13 -10 -21 -10
-8 0 -14 -7 -14 -15 0 -8 -7 -15 -15 -15 -8 0 -15 5 -15 10 0 6 5 10 10 10 6
0 10 7 10 15 0 8 7 15 15 15 8 0 15 8 15 18 1 16 1 16 11 -1 5 -9 7 -22 4 -27z
m-596 -310 c16 -8 19 -23 12 -62 0 -5 -8 -8 -16 -8 -8 0 -14 3 -14 8 5 31 -5
38 -31 22 -13 -8 -12 -11 5 -25 15 -13 17 -18 6 -22 -10 -4 -11 -7 -1 -13 15
-9 5 -30 -15 -30 -19 0 -44 27 -51 54 -4 16 2 31 18 48 34 36 58 44 87 28z
m-42 -336 c-9 -10 -38 16 -31 28 4 6 13 4 22 -6 9 -8 13 -19 9 -22z"/>
<path d="M4796 5403 c-3 -4 -6 -246 -6 -539 1 -404 4 -534 13 -538 9 -3 9 -7
-1 -14 -9 -6 -12 -34 -10 -97 l3 -89 30 -6 c20 -4 40 -1 58 10 24 15 26 19 12
30 -18 15 -20 35 -2 23 6 -4 30 -12 52 -18 29 -7 41 -16 43 -31 3 -23 48 -39
77 -28 23 9 19 -23 -5 -36 -11 -6 -20 -17 -20 -24 0 -7 -15 -17 -32 -23 -23
-6 -32 -14 -30 -26 2 -9 -3 -17 -10 -17 -15 0 -48 50 -48 73 0 22 -30 30 -50
12 -19 -17 -40 -20 -40 -5 0 6 -4 10 -10 10 -5 0 -7 -7 -4 -15 4 -11 2 -13 -9
-10 -12 5 -14 -5 -13 -57 l1 -63 94 -3 c66 -2 97 1 102 9 6 10 11 10 23 0 19
-16 807 -8 901 9 156 29 247 81 279 160 9 22 19 72 22 111 l7 70 -46 -5 c-25
-3 -53 -3 -61 0 -31 12 -12 50 30 57 10 2 31 10 47 17 l27 13 0 351 c0 388 -6
452 -47 510 -77 109 -227 159 -513 173 -135 6 -136 6 -179 -21 -38 -24 -47
-26 -71 -16 -21 8 -34 9 -48 1 -12 -6 -31 -11 -43 -11 -19 0 -21 4 -15 30 l6
30 -254 0 c-139 0 -256 -3 -260 -7z m318 -49 c33 -28 61 -88 28 -62 -9 7 -23
20 -32 28 -9 8 -25 20 -35 26 -11 6 -15 15 -11 22 10 17 14 16 50 -14z m78 -2
c3 -10 -1 -23 -8 -30 -11 -10 -15 -8 -24 8 -8 14 -8 20 0 20 6 0 8 5 5 10 -3
6 0 10 8 10 8 0 17 -8 19 -18z m68 -100 c0 -25 16 -46 29 -38 7 5 11 -6 11
-33 0 -34 -4 -42 -32 -55 -49 -25 -54 -22 -55 44 -1 33 3 60 8 60 6 0 7 5 4
10 -4 6 -11 8 -16 5 -10 -6 -13 58 -3 67 8 9 54 -41 54 -60z m554 -6 c-7 -19
-44 -28 -44 -11 0 15 30 36 42 29 4 -3 5 -11 2 -18z m-854 -41 c0 -3 -9 -14
-21 -26 -16 -16 -23 -18 -35 -8 -13 10 -13 14 1 29 9 10 15 21 14 26 -4 24 3
26 21 6 11 -12 20 -24 20 -27z m157 -13 c-17 -16 -17 -16 -13 8 2 14 5 27 5
30 1 2 6 -1 13 -8 10 -9 8 -16 -5 -30z m-112 -22 c3 -5 2 -10 -4 -10 -5 0 -13
5 -16 10 -3 6 -2 10 4 10 5 0 13 -4 16 -10z m45 -10 c0 -5 -5 -10 -11 -10 -5
0 -7 5 -4 10 3 6 8 10 11 10 2 0 4 -4 4 -10z m510 -25 c29 -15 33 -23 45 -82
6 -29 9 -31 31 -23 22 9 24 8 15 -9 -6 -10 -17 -21 -25 -24 -12 -5 -15 -62
-18 -369 -3 -393 -6 -410 -58 -434 -14 -7 -51 -15 -82 -19 l-58 -6 0 248 c0
180 -3 252 -12 261 -9 9 -9 12 0 12 9 0 12 58 12 230 l0 230 60 0 c35 0 74 -7
90 -15z m181 -18 c-13 -13 -26 -3 -16 12 3 6 11 8 17 5 6 -4 6 -10 -1 -17z
m369 -2 c0 -7 5 -15 12 -17 9 -3 9 -6 1 -11 -13 -8 -55 31 -47 44 7 12 34 -1
34 -16z m-1045 -15 c3 -5 1 -10 -4 -10 -6 0 -11 5 -11 10 0 6 2 10 4 10 3 0 8
-4 11 -10z m126 -34 c5 -18 4 -35 -2 -43 -6 -7 -9 -20 -5 -28 3 -9 0 -15 -9
-15 -17 0 -20 -26 -5 -35 14 -9 3 -25 -26 -36 -20 -7 -23 -12 -15 -26 13 -23
-13 -53 -39 -46 -34 9 -31 30 4 25 25 -4 29 -2 19 9 -7 7 -13 21 -13 30 0 26
-29 31 -53 9 -35 -34 -67 -37 -89 -9 -19 22 -19 24 -2 36 10 7 24 13 31 13 7
0 13 5 13 10 0 15 33 12 68 -6 29 -14 33 -14 56 3 l24 18 -19 36 c-10 20 -26
39 -35 43 -13 5 -14 9 -3 22 7 8 21 13 31 11 10 -3 18 -1 18 5 0 5 10 8 22 6
14 -2 24 -13 29 -32z m159 24 c0 -5 -4 -10 -10 -10 -5 0 -10 5 -10 10 0 6 5
10 10 10 6 0 10 -4 10 -10z m-408 -115 c4 -18 0 -26 -14 -31 -26 -8 -30 -2
-22 30 8 33 30 34 36 1z m306 -38 c-3 -31 -28 -51 -28 -23 0 9 -7 19 -15 23
-14 5 -14 7 1 24 23 26 46 13 42 -24z m59 -29 c-3 -8 -6 -5 -6 6 -1 11 2 17 5
13 3 -3 4 -12 1 -19z m441 -45 c-4 -38 -27 -42 -26 -4 1 20 6 31 15 31 10 0
13 -9 11 -27z m-465 -8 c-3 -8 0 -15 6 -15 6 0 11 -9 11 -21 0 -16 -4 -19 -17
-14 -10 4 -24 8 -31 8 -13 0 -7 32 10 54 13 16 29 7 21 -12z m-53 -9 c0 -15
-14 -35 -21 -30 -15 9 -10 34 6 34 8 0 15 -2 15 -4z m150 -156 c0 -13 -23 -17
-55 -10 l-30 6 30 16 c29 15 55 10 55 -12z m378 -10 c3 -18 -48 -80 -66 -80
-7 0 -12 -7 -12 -15 0 -8 -7 -15 -15 -15 -8 0 -15 5 -15 10 0 6 5 10 10 10 6
0 10 7 10 15 0 8 6 15 13 15 8 0 20 18 27 40 14 41 42 52 48 20z m172 -44 c0
-20 43 -51 68 -48 14 2 22 -2 22 -11 0 -10 -7 -13 -19 -10 -11 3 -28 -4 -39
-15 l-21 -21 -19 60 c-10 32 -17 61 -14 64 8 7 22 -5 22 -19z m-105 -172 c28
-30 49 -32 76 -8 9 8 24 12 33 8 9 -3 16 -2 16 4 0 6 -6 12 -12 14 -7 3 -3 7
9 10 20 5 22 3 17 -26 -10 -54 -25 -76 -54 -76 -15 0 -33 7 -40 15 -15 18 -41
20 -57 4 -6 -6 -17 -11 -24 -13 -8 -1 -25 -6 -37 -10 -19 -6 -30 -2 -52 19
-25 24 -27 30 -18 56 6 16 19 34 30 40 11 6 17 13 14 17 -4 3 4 11 16 18 20
11 24 9 39 -15 9 -15 29 -40 44 -57z m-920 44 c-4 -9 -13 -15 -20 -14 -25 4
-29 16 -9 30 22 17 38 7 29 -16z m-41 -47 c10 -11 15 -24 12 -30 -4 -5 3 -12
14 -16 20 -6 26 -30 12 -52 -6 -10 -15 -10 -40 -1 -30 12 -32 15 -32 65 0 57
7 64 34 34z m253 -37 c-3 -3 -12 -4 -19 -1 -8 3 -5 6 6 6 11 1 17 -2 13 -5z
m54 -56 c24 -26 24 -27 -1 -21 -11 3 -20 9 -20 14 0 5 -6 9 -14 9 -8 0 -18 5
-21 10 -12 20 38 10 56 -12z m84 2 c8 -13 -13 -40 -30 -40 -7 0 -15 11 -17 25
-4 21 -1 25 18 25 12 0 26 -5 29 -10z m821 -72 c3 -5 -4 -12 -16 -15 -12 -3
-26 -17 -31 -30 -9 -24 -29 -23 -29 1 0 8 -15 21 -32 30 -31 17 -32 17 -5 11
18 -3 29 -1 33 8 5 15 70 11 80 -5z m-821 -43 c-2 -25 2 -38 13 -45 10 -5 13
-10 7 -10 -5 0 -4 -4 4 -9 17 -11 25 -51 11 -51 -6 0 -10 -11 -10 -25 0 -23
-2 -24 -27 -12 -16 6 -31 16 -34 21 -4 5 -11 6 -17 2 -13 -8 -26 28 -27 71 0
29 3 33 25 33 32 0 55 15 46 29 -4 6 -4 16 -1 21 11 18 14 11 10 -25z m884
-24 c11 -11 17 -22 14 -25 -9 -9 -43 14 -43 29 0 20 6 19 29 -4z m-991 -59 c6
-18 -15 -14 -22 4 -4 10 -1 14 6 12 6 -2 14 -10 16 -16z m-68 -212 c13 -9 13
-11 0 -20 -19 -13 -34 -8 -38 13 -4 19 15 22 38 7z"/>
<path d="M5751 4507 c-10 -13 -9 -17 9 -27 22 -12 43 -5 24 8 -6 4 -13 13 -15
21 -4 11 -7 10 -18 -2z"/>
<path d="M6631 5388 c-7 -18 -4 -29 15 -49 13 -14 24 -33 24 -43 0 -14 -5 -12
-27 10 l-27 27 -23 -108 c-17 -81 -20 -111 -12 -121 9 -11 8 -14 -3 -14 -10 0
-18 -14 -22 -37 -3 -21 -9 -48 -12 -60 -4 -16 -2 -23 8 -23 8 0 24 -9 35 -19
21 -20 21 -20 51 2 29 22 29 23 14 52 -8 17 -24 36 -34 43 -15 11 -17 17 -7
29 7 8 21 12 30 10 10 -3 20 0 21 5 2 6 13 8 26 4 21 -7 23 -13 20 -62 -2 -35
-7 -54 -15 -54 -7 0 -13 -9 -13 -20 0 -11 5 -20 11 -20 17 0 -1 -20 -26 -30
-17 -7 -22 -14 -18 -30 7 -26 -13 -49 -37 -43 -18 5 -29 24 -12 22 4 -1 16 -1
26 0 17 1 18 3 4 19 -8 9 -18 25 -21 35 -8 23 -16 21 -55 -12 -31 -27 -34 -36
-81 -255 -27 -124 -47 -235 -44 -246 3 -10 -2 -31 -10 -47 -24 -43 -60 -224
-47 -237 7 -7 10 -7 10 1 0 6 12 14 26 17 l27 7 -23 25 c-20 21 -16 37 4 17 4
-5 26 -13 49 -18 31 -8 43 -17 45 -32 3 -22 48 -38 77 -27 22 9 18 -19 -5 -34
-11 -7 -20 -18 -20 -26 0 -7 -15 -17 -32 -23 -22 -6 -33 -15 -32 -26 3 -34
-28 -16 -47 29 -23 50 -46 66 -61 41 -5 -10 -17 -17 -27 -17 -13 0 -20 -10
-24 -32 -3 -18 -9 -48 -13 -65 l-6 -33 95 0 c67 0 97 4 100 13 4 10 7 10 18 0
9 -9 60 -13 180 -13 151 0 169 2 192 20 14 11 32 18 40 14 15 -5 15 -8 38 154
l11 82 67 0 c36 0 72 4 79 9 7 4 28 3 46 -3 l34 -10 11 -106 c7 -58 14 -117
17 -132 l6 -28 239 0 c173 0 245 3 260 13 17 10 23 10 26 0 8 -22 33 -14 43
12 6 15 17 25 29 25 17 0 18 4 9 43 -6 23 -19 49 -29 59 -11 9 -19 20 -19 25
0 4 -9 14 -19 20 -24 15 -22 66 3 71 9 2 16 9 16 15 -1 7 -29 129 -63 272 -65
268 -65 268 -109 250 -13 -5 -19 0 -24 19 -3 14 -11 26 -16 26 -6 0 -6 5 1 14
7 8 25 13 42 12 26 -2 30 1 25 18 -3 12 -35 147 -72 301 -37 154 -72 283 -78
287 -6 4 -34 8 -61 8 -39 0 -53 -4 -63 -20 -7 -11 -17 -20 -22 -20 -6 0 -10 9
-10 20 0 20 -7 20 -360 20 l-361 0 -8 -22z m78 -35 c6 -13 5 -22 -5 -31 -11
-10 -15 -9 -22 5 -10 20 -5 43 8 43 5 0 13 -8 19 -17z m507 1 c15 -4 24 -2 24
5 0 16 47 13 53 -3 8 -19 -36 -47 -75 -48 -27 -1 -33 -7 -54 -55 -13 -29 -27
-53 -31 -53 -5 0 -18 -3 -30 -6 -35 -10 -31 38 5 65 27 20 27 20 7 36 -15 12
-17 18 -6 22 7 3 23 16 34 29 12 14 27 22 35 19 8 -3 25 -8 38 -11z m-460 -67
c11 -12 24 -35 28 -50 3 -15 12 -27 19 -26 25 3 76 -14 81 -27 8 -20 -33 -59
-46 -46 -7 7 -21 4 -44 -9 -57 -32 -65 -27 -64 39 0 55 1 62 11 62 6 0 7 5 4
10 -4 6 -10 8 -15 5 -10 -6 -23 42 -15 55 9 15 18 12 41 -13z m444 -76 c0 -17
-4 -33 -10 -36 -6 -4 -10 8 -10 29 0 20 5 36 10 36 6 0 10 -13 10 -29z m-563
-18 c-16 -16 -17 -16 -17 3 0 11 3 24 7 27 4 4 11 3 17 -3 7 -7 5 -16 -7 -27z
m607 -58 c10 -7 15 -19 11 -25 -5 -8 -13 -6 -26 6 -33 30 -21 46 15 19z m-115
-61 c26 -34 27 -54 1 -54 -22 0 -25 -7 -11 -29 5 -7 14 -10 21 -6 9 6 9 1 -1
-16 -7 -13 -12 -40 -10 -59 2 -40 57 -395 67 -435 l7 -27 -129 3 c-129 2 -154
5 -154 18 0 11 57 41 64 34 3 -3 6 -2 6 4 0 6 -9 13 -20 16 -27 7 -25 25 3 23
23 -1 29 17 50 146 6 39 -8 53 -39 41 -15 -6 -15 -8 2 -20 24 -17 13 -17 -36
3 -22 9 -40 22 -40 30 0 24 42 43 87 39 l42 -4 10 47 c23 113 24 122 8 122 -9
0 -19 4 -22 10 -9 14 13 50 30 50 14 0 20 17 17 50 -4 45 18 51 47 14z m-204
-31 c48 -23 46 -43 -5 -43 -22 0 -40 -5 -40 -10 0 -7 -6 -7 -18 -1 -25 13 -24
45 1 58 12 6 23 11 24 12 1 0 18 -7 38 -16z m435 -4 c0 -5 -4 -9 -10 -9 -5 0
-10 7 -10 16 0 8 5 12 10 9 6 -3 10 -10 10 -16z m-58 -23 c17 -23 16 -23 -7
-23 -29 0 -50 21 -41 42 7 19 26 11 48 -19z m169 -36 c25 -14 25 -30 0 -30
-11 0 -23 -5 -26 -11 -4 -6 -13 -8 -21 -5 -8 3 -14 1 -14 -5 0 -5 7 -12 15
-15 18 -7 20 -40 3 -48 -7 -3 -1 -3 14 0 23 5 29 1 48 -36 11 -22 28 -44 36
-47 16 -6 39 -50 35 -68 0 -5 6 -1 14 9 14 19 15 17 15 -20 0 -59 -9 -67 -53
-47 -20 10 -38 23 -38 30 -1 7 -2 18 -3 25 0 6 -14 15 -31 20 -20 5 -36 19
-48 44 -9 19 -13 33 -7 29 17 -11 11 3 -15 31 -36 39 -30 84 12 104 18 8 31
20 29 27 -9 22 7 28 35 13z m-701 -46 c0 -33 -18 -39 -39 -12 -18 21 -18 25
-4 40 20 22 43 7 43 -28z m183 9 c-7 -2 -19 -2 -25 0 -7 3 -2 5 12 5 14 0 19
-2 13 -5z m-93 -88 c0 -34 -44 -63 -71 -46 -11 6 -24 9 -29 6 -6 -4 -10 0 -10
7 0 11 -2 11 -9 0 -6 -10 -10 -10 -20 2 -16 19 4 32 25 15 8 -6 15 -10 17 -8
1 2 7 12 12 23 12 21 32 19 27 -2 -2 -8 1 -11 7 -7 6 3 11 17 11 31 0 22 3 23
20 14 12 -6 20 -21 20 -35z m110 -165 c0 -5 -2 -10 -4 -10 -3 0 -8 5 -11 10
-3 6 -1 10 4 10 6 0 11 -4 11 -10z m-10 -62 c0 -7 3 -23 6 -35 5 -18 2 -23
-14 -23 -12 0 -24 -5 -27 -10 -8 -13 -25 -3 -25 15 0 15 40 65 53 65 4 0 7 -6
7 -12z m-323 -204 c-3 -3 -12 -4 -19 -1 -8 3 -5 6 6 6 11 1 17 -2 13 -5z m54
-61 c13 -15 17 -22 8 -15 -9 6 -19 9 -22 5 -4 -3 -7 -1 -7 5 0 7 -9 12 -20 12
-11 0 -20 5 -20 10 0 20 37 9 61 -17z m84 -2 c0 -16 -31 -38 -40 -29 -3 3 -8
15 -10 27 -3 19 0 22 23 19 15 -2 27 -9 27 -17z m765 -66 c0 -8 5 -15 10 -15
6 0 13 7 16 15 4 8 16 15 27 15 16 0 18 -3 9 -12 -7 -7 -12 -31 -12 -54 0 -25
-6 -47 -15 -54 -8 -7 -15 -28 -15 -47 0 -26 -8 -42 -31 -64 -28 -26 -57 -40
-46 -21 3 4 -12 20 -34 36 -48 36 -52 66 -10 66 21 0 32 -6 36 -20 13 -41 59
-12 53 33 -2 13 -16 39 -31 57 l-28 33 22 23 c25 27 49 31 49 9z m-763 -27 c1
-12 -2 -25 -7 -28 -12 -8 44 -67 71 -75 10 -4 19 -10 19 -15 0 -12 -28 -20
-45 -14 -14 6 -19 -5 -16 -33 2 -10 -4 -10 -26 -1 -15 7 -31 17 -34 22 -4 5
-11 6 -17 2 -13 -8 -24 19 -27 67 -3 31 0 37 17 37 27 0 60 19 53 31 -5 8 1
29 8 29 2 0 3 -10 4 -22z m658 -28 c3 -5 2 -10 -4 -10 -5 0 -13 5 -16 10 -3 6
-2 10 4 10 5 0 13 -4 16 -10z m-35 -51 c0 -11 -4 -17 -10 -14 -5 3 -10 13 -10
21 0 8 5 14 10 14 6 0 10 -9 10 -21z m-732 -17 c6 -18 -15 -14 -22 4 -4 10 -1
14 6 12 6 -2 14 -10 16 -16z m-80 -208 c27 -8 29 -20 2 -27 -13 -3 -24 1 -30
14 -11 20 -8 22 28 13z"/>
<path d="M7887 5403 c-4 -3 -7 -35 -7 -70 0 -56 2 -63 20 -63 26 0 26 -18 -1
-41 -16 -14 -20 -27 -17 -66 l3 -48 93 -3 c59 -2 92 1 92 8 0 5 -7 10 -16 10
-9 0 -14 7 -12 18 2 11 -3 26 -10 34 -10 13 -6 21 22 51 27 29 35 33 40 21 3
-9 4 -20 1 -25 -3 -4 3 -14 13 -20 21 -13 19 -38 -6 -76 l-14 -23 81 0 81 0 0
-42 1 -43 29 32 c16 18 32 28 35 23 3 -5 1 -11 -5 -15 -17 -11 -11 -21 15 -23
16 -1 25 3 25 13 0 22 28 18 40 -5 13 -25 -4 -34 -55 -28 -28 3 -35 1 -35 -13
0 -21 -28 -51 -41 -44 -5 4 -9 -69 -9 -179 l0 -185 26 -20 26 -21 -26 -10 -26
-10 0 -150 0 -150 29 0 c16 0 34 7 41 15 18 21 47 19 60 -5 11 -21 5 -44 -10
-35 -5 3 -16 -2 -25 -12 -14 -14 -18 -14 -26 -2 -8 12 -10 12 -18 0 -9 -15 6
-61 20 -61 19 0 39 13 39 26 0 8 6 11 15 8 9 -4 15 0 15 10 0 9 5 16 11 16 5
0 7 -4 4 -10 -3 -5 -1 -10 5 -10 6 0 9 -8 6 -18 -8 -25 57 -48 75 -26 9 11 8
15 -5 20 -27 10 -18 21 14 16 26 -4 30 -1 30 19 0 13 8 47 18 76 13 40 20 50
31 44 9 -6 11 -18 7 -35 -5 -19 -2 -26 8 -26 7 0 17 12 21 27 5 20 8 24 15 13
5 -8 7 -17 4 -21 -2 -4 3 -23 11 -43 16 -38 16 -53 1 -48 -6 2 -20 -2 -33 -9
-13 -7 -26 -10 -29 -7 -3 4 -21 -11 -39 -31 -34 -37 -94 -64 -121 -54 -7 2
-16 13 -19 23 -3 10 -13 24 -21 31 -14 11 -18 10 -30 -6 -8 -10 -14 -29 -14
-42 0 -18 -6 -23 -24 -23 -13 0 -29 7 -36 15 -23 28 -30 15 -30 -60 l0 -75 23
14 c28 18 68 30 65 19 -2 -4 2 -10 7 -13 6 -3 11 7 13 23 3 25 32 41 32 17 0
-5 7 -7 15 -4 8 4 15 2 15 -4 0 -6 3 -17 6 -26 4 -11 0 -16 -14 -16 -11 0 -22
5 -24 12 -6 17 -28 0 -28 -23 0 -18 9 -19 250 -19 l250 0 0 119 c0 109 -8 148
-25 121 -3 -5 -11 -10 -17 -10 -7 0 -6 6 2 15 7 8 18 15 26 15 10 0 13 85 14
456 0 251 3 461 6 465 3 5 86 9 185 9 l179 0 0 75 c0 76 -4 82 -42 76 -16 -2
-7 16 17 39 21 20 25 31 22 65 l-4 40 -62 3 c-65 3 -96 -10 -87 -34 3 -7 1
-16 -5 -20 -6 -3 -9 -11 -6 -18 6 -18 -29 -46 -42 -33 -8 8 -11 6 -11 -6 0 -9
-7 -17 -16 -17 -23 0 -64 47 -58 65 8 20 41 19 52 -2 20 -34 38 -23 38 24 l0
44 -171 -2 c-93 0 -189 -6 -213 -11 -31 -8 -46 -8 -55 1 -22 22 -230 10 -221
-14 3 -8 -4 -12 -21 -11 -14 1 -25 5 -24 10 2 19 -29 26 -114 26 l-87 0 5 -29
c3 -19 -2 -37 -15 -53 -18 -23 -23 -25 -62 -17 -24 4 -46 8 -50 9 -18 1 -48
42 -48 65 0 21 -5 25 -28 25 -16 0 -32 -3 -35 -7z m903 -73 c0 -4 -9 -6 -21
-3 -15 4 -17 8 -8 14 14 8 29 3 29 -11z m-222 -32 c15 -15 16 -41 0 -36 -6 2
-18 14 -26 26 -12 19 -12 22 0 22 8 0 19 -5 26 -12z m203 -20 c0 -7 2 -21 4
-32 6 -30 -5 -47 -26 -41 -11 4 -19 2 -19 -4 0 -6 -4 -11 -10 -11 -5 0 -9 6
-7 13 1 6 -4 11 -10 10 -31 -7 -6 45 32 65 26 15 35 15 36 0z m374 -53 c17 -7
24 -14 17 -14 -7 -1 -10 -6 -6 -12 4 -8 -4 -9 -27 -4 -45 10 -49 13 -42 30 6
18 19 18 58 0z m-833 -45 c-5 -37 -26 -34 -30 3 -3 21 1 27 16 27 15 0 18 -6
14 -30z m179 -278 c-6 -12 -6 -23 0 -33 8 -11 12 -11 16 -1 2 6 12 12 20 12 9
0 13 6 10 14 -5 11 0 13 25 5 34 -9 50 -27 41 -43 -4 -5 0 -7 9 -3 11 4 16 -1
16 -19 0 -13 -4 -24 -9 -24 -5 0 -9 7 -9 16 0 9 -6 14 -12 11 -7 -2 -12 -10
-10 -17 7 -31 -41 -44 -110 -31 -3 0 -13 14 -21 31 -13 25 -13 31 -1 41 8 6
14 19 14 29 0 18 8 30 22 30 5 0 4 -8 -1 -18z m169 -106 c0 -3 -4 -8 -10 -11
-5 -3 -10 -1 -10 4 0 6 5 11 10 11 6 0 10 -2 10 -4z m190 -71 c0 -8 -6 -15
-14 -15 -17 0 -28 14 -19 24 12 12 33 6 33 -9z m-322 -103 c2 -7 -5 -12 -17
-12 -14 0 -19 5 -14 15 6 17 25 15 31 -3z m179 -602 c9 -12 8 -16 -5 -22 -9
-4 -22 -7 -28 -7 -12 -1 -26 48 -17 62 5 8 30 -8 50 -33z m-62 -30 c3 -5 2
-10 -4 -10 -5 0 -13 5 -16 10 -3 6 -2 10 4 10 5 0 13 -4 16 -10z"/>
<path d="M8520 4842 c0 -21 5 -28 20 -29 11 -1 20 4 20 10 0 7 -9 20 -20 30
-19 16 -20 16 -20 -11z"/>
<path d="M7970 5396 c0 -16 26 -40 33 -29 2 4 -4 16 -15 26 -13 13 -18 14 -18
3z"/>
<path d="M9386 5402 c-4 -3 -6 -291 -6 -639 1 -614 2 -642 28 -683 2 -2 7 2
12 10 9 14 10 13 10 -17 0 -5 -6 -8 -12 -8 -7 -1 -12 -6 -10 -13 1 -7 -5 -15
-13 -18 -11 -5 -15 -21 -15 -60 l0 -54 247 0 c135 0 243 3 240 7 -4 3 0 15 9
24 16 18 18 18 46 -6 23 -20 41 -25 82 -25 28 0 57 5 64 12 8 8 15 8 24 0 8
-6 56 -11 109 -11 92 -1 96 0 109 24 12 22 11 28 -3 42 -8 9 -33 17 -54 19
-21 2 -40 3 -42 3 -3 1 8 14 24 31 22 23 32 27 42 19 9 -9 13 -8 13 0 0 8 7 7
22 -3 12 -9 30 -16 39 -16 13 0 16 -8 14 -44 -4 -51 18 -80 57 -74 23 3 23 4
23 148 l0 145 -228 3 -227 2 2 163 3 162 118 3 c84 2 117 6 117 15 0 8 4 7 10
-3 8 -12 10 -12 16 3 3 9 12 17 19 17 7 0 18 14 25 30 10 25 18 30 47 30 l34
0 -3 93 -3 92 -192 3 -192 2 -3 158 c-2 86 0 161 4 166 4 5 12 -3 19 -17 11
-25 17 -27 75 -27 35 0 66 5 69 10 5 8 11 8 20 0 8 -7 54 -10 121 -8 l109 3 3
110 c2 68 -2 124 -9 148 l-12 37 -128 0 c-78 0 -130 -4 -134 -10 -7 -11 -121
-8 -132 4 -15 15 -61 5 -76 -16 l-16 -23 0 23 -1 23 -254 -2 c-140 0 -257 -3
-260 -7z m124 -58 c0 -13 -5 -24 -11 -24 -6 0 -9 -9 -6 -20 4 -15 0 -20 -14
-20 -21 0 -42 39 -29 54 5 5 6 14 3 21 -5 14 23 24 45 17 6 -2 12 -15 12 -28z
m54 -16 c6 -4 7 -11 2 -15 -10 -11 -37 27 -29 40 4 7 8 6 11 -3 3 -8 10 -18
16 -22z m69 -80 c6 -38 -20 -65 -60 -65 -31 0 -29 12 7 47 17 16 30 34 30 40
0 25 18 7 23 -22z m321 -102 c-6 -16 -8 -17 -16 -2 -11 19 0 42 13 29 6 -6 7
-18 3 -27z m-340 8 c9 -24 8 -26 -16 -18 -32 9 -35 14 -18 24 21 13 27 12 34
-6z m293 -49 c0 -8 -6 -15 -13 -15 -8 0 -11 6 -8 15 4 8 9 15 13 15 4 0 8 -7
8 -15z m6 -75 c3 -11 1 -20 -4 -20 -5 0 -4 -12 1 -26 14 -35 13 -42 -7 -40
-10 0 -19 -8 -21 -18 -2 -11 -10 -26 -18 -34 -8 -7 -14 -21 -14 -31 0 -21 -42
-21 -61 0 -33 35 -37 53 -21 82 9 15 22 27 29 27 7 0 21 4 31 9 9 5 25 12 35
15 10 3 15 11 12 16 -7 11 11 40 25 40 4 0 10 -9 13 -20z m-263 -66 c0 -15
-22 -44 -31 -39 -5 4 -9 1 -9 -5 0 -7 7 -10 15 -6 8 3 15 1 15 -4 0 -6 5 -10
10 -10 6 0 10 9 10 20 0 54 48 -9 51 -67 1 -21 6 -43 11 -50 6 -7 2 -19 -11
-32 -27 -27 -60 -15 -83 30 -10 19 -36 48 -58 64 -22 17 -40 37 -40 46 0 8 19
25 43 36 41 21 77 29 77 17z m169 -186 c6 -17 9 -34 6 -36 -10 -10 -45 37 -39
52 9 25 21 19 33 -16z m51 6 c0 -8 -4 -12 -10 -9 -5 3 -10 10 -10 16 0 5 5 9
10 9 6 0 10 -7 10 -16z m-20 -299 c17 -10 11 -33 -10 -40 -11 -3 -20 -11 -20
-17 0 -13 -66 -4 -86 12 -11 10 -11 15 2 35 9 13 23 25 32 28 17 3 63 -6 82
-18z m-260 6 c0 -5 -7 -14 -15 -21 -16 -14 -18 -10 -9 14 6 17 24 22 24 7z
m58 -13 c15 -15 16 -65 1 -74 -16 -9 -29 15 -29 54 0 34 8 40 28 20z m207
-129 c11 -17 -1 -21 -34 -14 -17 4 -29 11 -25 16 7 12 51 11 59 -2z m-162
-195 c3 -4 2 -15 -4 -25 -7 -14 -7 -19 2 -17 18 4 22 -19 5 -25 -10 -4 -26 4
-40 20 -23 25 -24 28 -8 39 19 15 35 17 45 8z m87 -94 c0 -5 -5 -10 -11 -10
-5 0 -7 5 -4 10 3 6 8 10 11 10 2 0 4 -4 4 -10z"/>
<path d="M9680 4835 c0 -8 5 -15 10 -15 6 0 10 7 10 15 0 8 -4 15 -10 15 -5 0
-10 -7 -10 -15z"/>
<path d="M8060 5384 c0 -12 6 -15 23 -11 22 6 22 6 -2 -12 -13 -10 -19 -21
-14 -24 15 -10 44 28 37 47 -8 21 -44 21 -44 0z"/>
<path d="M10314 4575 c1 -21 6 -25 34 -25 17 0 32 5 32 10 0 6 -9 10 -19 10
-26 0 -36 17 -14 23 12 3 9 5 -8 6 -23 1 -27 -3 -25 -24z"/>
<path d="M2896 3561 c-4 -5 6 -22 20 -36 26 -26 26 -30 20 -103 -4 -53 -2 -85
7 -102 14 -27 83 -71 107 -67 10 1 14 -5 12 -19 -2 -12 4 -24 13 -27 8 -4 15
-14 15 -22 0 -10 5 -13 11 -9 7 4 10 1 7 -7 -3 -8 -13 -16 -23 -17 -10 -2 -15
0 -11 6 3 6 2 13 -3 16 -17 11 -22 -73 -6 -109 13 -34 65 -67 103 -68 6 0 10
-2 7 -5 -2 -2 2 -17 10 -33 8 -15 15 -52 15 -82 0 -66 24 -102 79 -117 48 -13
71 -38 87 -97 7 -27 17 -47 24 -45 8 2 10 -6 6 -25 -7 -32 0 -45 32 -62 27
-15 33 -11 48 32 10 28 13 30 19 13 5 -10 4 -26 -2 -35 -8 -12 -2 -22 22 -46
25 -23 34 -42 39 -81 8 -64 42 -100 111 -115 89 -19 100 -18 100 14 -1 30 28
39 39 12 3 -8 1 -15 -4 -15 -6 0 -9 -3 -8 -7 5 -18 -14 -52 -26 -47 -11 4 -12
-4 -5 -41 16 -83 41 -108 117 -110 52 -2 94 -37 110 -94 7 -20 23 -48 37 -61
21 -20 35 -24 88 -23 34 0 68 2 76 4 9 3 17 -7 21 -26 25 -110 64 -142 170
-139 69 2 71 1 86 -28 9 -17 34 -49 55 -70 39 -40 40 -40 95 -33 71 9 105 -5
139 -57 15 -23 41 -46 62 -54 32 -14 40 -14 75 1 51 20 95 8 136 -40 51 -57
101 -70 158 -40 16 8 37 15 47 15 9 0 17 6 17 14 0 19 30 29 46 15 8 -6 14
-20 14 -31 0 -55 80 -109 133 -89 26 10 43 42 32 63 -3 7 2 3 11 -10 11 -15
27 -22 50 -22 23 0 44 -10 69 -31 47 -42 111 -50 151 -20 16 11 43 25 61 30
28 8 38 5 80 -25 60 -43 118 -47 151 -11 12 13 20 25 18 28 -2 2 18 5 45 7 38
2 58 -3 92 -23 50 -28 89 -32 107 -10 7 9 15 14 17 11 2 -2 17 9 33 25 35 36
81 38 144 7 41 -20 47 -20 83 -7 23 9 43 26 51 42 7 15 18 27 23 27 6 0 7 5 4
11 -13 20 -12 59 0 59 12 0 27 -23 29 -42 1 -5 4 -8 9 -8 29 0 31 2 15 14 -10
7 -18 16 -18 20 0 14 19 5 49 -23 63 -59 120 -54 176 14 20 25 33 49 30 55 -3
5 2 10 12 10 10 0 27 3 39 6 12 3 27 -1 35 -9 23 -22 65 -29 79 -12 6 8 9 19
5 25 -8 13 3 50 15 50 11 0 40 -29 40 -39 0 -4 -10 -13 -22 -19 -14 -6 -17
-11 -8 -11 22 -1 35 10 54 46 23 46 68 67 127 59 65 -9 96 1 113 34 12 25 12
31 -2 51 -13 19 -13 24 0 48 9 14 13 32 11 39 -3 6 2 12 11 12 12 0 16 -11 16
-46 l0 -45 26 20 c16 13 41 21 64 21 22 0 43 7 51 16 8 10 22 14 40 10 27 -5
59 17 59 42 0 48 56 92 117 92 44 0 57 7 61 35 6 42 11 48 27 35 9 -7 16 -11
18 -9 1 2 11 22 22 43 25 50 59 75 110 82 77 11 115 48 115 112 0 36 44 79 90
88 79 15 110 46 110 107 0 30 -4 35 -28 39 -26 4 -28 2 -24 -21 5 -24 5 -24
-15 -5 -19 18 -21 36 -14 109 1 6 14 11 30 10 27 0 29 -2 23 -34 -4 -24 -2
-32 7 -27 6 4 14 1 17 -8 5 -12 11 -10 30 13 14 17 41 33 68 40 60 15 94 56
90 108 -4 60 21 101 81 129 64 30 86 65 83 132 -3 61 16 92 74 124 56 30 83
81 67 127 -6 17 -8 44 -4 59 7 30 62 92 81 92 16 0 44 44 46 72 1 13 -4 39
-11 60 -10 30 -9 42 3 72 l15 36 -60 0 c-48 0 -59 -3 -59 -16 0 -13 -7 -15
-30 -10 -22 4 -30 2 -30 -8 0 -8 -13 -17 -29 -21 -25 -5 -29 -11 -29 -36 1
-44 -14 -55 -57 -42 -28 9 -35 8 -35 -2 0 -13 -27 -29 -46 -27 -6 1 -16 -9
-24 -22 -14 -27 -7 -70 15 -93 18 -17 19 -33 4 -33 -5 0 -7 -4 -4 -10 8 -13
-5 -80 -16 -80 -5 0 -9 16 -9 37 0 34 -1 35 -17 21 -10 -9 -33 -23 -50 -32
-44 -22 -65 -65 -57 -116 8 -52 -13 -85 -70 -110 -55 -23 -76 -53 -76 -106 0
-54 -33 -96 -89 -112 -51 -16 -81 -53 -81 -101 0 -21 -6 -46 -14 -56 -7 -10
-11 -27 -8 -37 2 -10 -1 -18 -7 -18 -6 0 -11 8 -12 18 0 16 -20 -20 -33 -61
-10 -33 -27 -18 -20 18 5 28 3 35 -9 35 -25 0 -77 -50 -77 -74 0 -32 -45 -113
-86 -155 -29 -30 -36 -33 -44 -21 -5 8 -10 23 -10 33 0 9 -6 17 -14 17 -20 0
-56 -48 -56 -75 0 -22 -50 -75 -71 -75 -20 0 -41 -31 -36 -51 3 -13 1 -19 -6
-16 -20 6 -20 40 -1 54 16 12 15 13 -13 13 -39 0 -80 -32 -88 -69 -11 -49 -49
-76 -106 -74 -27 0 -49 -3 -49 -8 0 -5 5 -9 11 -9 6 0 9 -6 6 -14 -3 -8 0 -20
8 -26 13 -11 10 -46 -7 -56 -5 -3 -15 0 -23 6 -12 10 -15 9 -15 -8 0 -11 6
-23 13 -25 7 -3 5 -6 -6 -6 -10 -1 -20 7 -23 16 -3 10 -10 26 -15 36 -5 10 -7
22 -4 27 3 5 1 11 -5 15 -5 3 -14 -5 -20 -19 -15 -40 -51 -58 -112 -55 -72 4
-98 -6 -98 -37 0 -13 -9 -33 -19 -43 -11 -11 -21 -30 -23 -43 -4 -29 -44 -38
-52 -11 -4 12 -23 22 -57 30 -64 15 -110 -1 -133 -46 -19 -37 -66 -53 -111
-38 -16 6 -49 11 -72 11 -37 0 -47 -5 -82 -43 -23 -25 -41 -51 -41 -59 0 -16
-45 -62 -61 -62 -13 0 -11 28 3 32 7 3 9 14 4 31 -10 40 -89 70 -125 48 -12
-8 -12 -12 -2 -25 7 -9 11 -23 7 -31 -5 -14 -8 -14 -28 -1 -16 10 -28 12 -38
6 -25 -16 -83 -11 -115 10 -41 27 -87 25 -123 -5 -40 -34 -98 -34 -148 0 -47
32 -74 31 -130 -1 -47 -28 -83 -27 -116 3 -9 8 -22 12 -27 8 -6 -3 -11 1 -11
9 0 9 -4 16 -10 16 -5 0 -7 -7 -3 -16 4 -10 -4 -25 -20 -40 -30 -28 -37 -30
-37 -9 0 8 4 15 9 15 13 0 21 27 15 45 -8 20 -27 19 -70 -4 -45 -24 -81 -15
-135 34 -38 34 -72 49 -52 23 5 -7 11 -32 12 -56 2 -40 0 -43 -21 -40 -26 4
-38 39 -27 81 6 21 4 27 -7 27 -10 0 -14 -8 -12 -23 1 -12 -6 -31 -17 -42 -24
-24 -71 -46 -79 -38 -11 11 -6 36 9 53 13 15 11 19 -24 42 -21 14 -43 23 -47
19 -11 -8 -16 -91 -6 -91 5 0 7 -13 4 -29 -6 -45 -34 -32 -54 25 -22 60 -22
64 -3 64 8 0 15 -7 15 -15 0 -8 4 -15 9 -15 14 0 23 32 12 43 -6 6 -7 23 -4
40 4 22 3 28 -6 23 -6 -4 -19 -2 -27 5 -11 9 -23 9 -54 0 -51 -15 -102 4 -125
48 -22 44 -95 77 -119 54 -4 -4 -28 -7 -55 -8 -35 0 -47 4 -44 12 3 7 -3 16
-13 19 -54 17 -65 27 -59 55 8 36 -19 52 -73 43 -23 -3 -48 -1 -60 5 -16 9
-26 8 -42 -1 -14 -9 -25 -10 -37 -2 -26 16 -26 30 2 42 30 14 31 22 4 56 -26
33 -51 47 -68 37 -10 -6 -9 -16 3 -46 9 -20 16 -48 16 -62 0 -21 -3 -22 -20
-13 -11 6 -18 15 -16 19 8 12 -52 73 -64 66 -6 -4 -33 4 -60 17 -45 21 -49 26
-45 52 3 22 -4 41 -26 70 -30 41 -30 41 -8 44 13 2 28 -3 35 -13 7 -9 15 -12
18 -7 9 15 -43 44 -68 38 -23 -6 -86 26 -86 44 0 19 -59 70 -75 64 -13 -5 -13
-2 2 25 16 28 16 33 3 41 -8 5 -25 10 -38 10 -58 0 -102 48 -102 111 0 36 -47
89 -80 89 -49 0 -90 50 -90 110 0 52 -25 88 -71 101 -56 17 -79 50 -79 111 0
65 -21 103 -65 118 -51 17 -65 43 -65 120 0 42 -5 73 -15 87 -19 27 -73 55
-81 42 -11 -18 -24 -8 -24 19 l-1 27 -16 -30 c-21 -40 -20 -40 -38 -25 -13 11
-19 10 -35 -5 -14 -13 -24 -15 -31 -8 -16 16 -7 67 12 71 10 2 16 -3 15 -10 0
-7 4 -15 9 -18 6 -3 11 7 13 23 3 22 8 27 31 27 34 0 46 13 55 60 5 26 4 31
-3 20 -8 -10 -13 -12 -18 -4 -10 14 -278 19 -287 5z m5939 -187 c27 -29 32
-44 14 -44 -12 0 -69 51 -69 62 0 17 33 6 55 -18z m-165 -28 c0 -32 -14 -40
-34 -20 -24 23 -20 44 9 44 20 0 25 -5 25 -24z m-5540 -86 c0 -11 7 -23 15
-26 22 -9 18 -23 -4 -17 -19 5 -44 47 -34 57 12 12 23 5 23 -14z m5553 -65
c13 5 40 -42 32 -56 -8 -13 -65 -7 -65 7 0 7 6 14 13 17 10 4 10 7 0 18 -7 7
-13 20 -13 29 1 12 2 12 11 -2 5 -9 15 -15 22 -13z m-5512 -104 c18 -16 19
-22 8 -42 l-12 -23 -8 22 c-5 12 -13 22 -19 22 -5 0 -10 9 -10 20 0 25 15 25
41 1z m5551 -23 c-7 -7 -12 -8 -12 -2 0 14 12 26 19 19 2 -3 -1 -11 -7 -17z
m-22 -34 c0 -17 -6 -28 -20 -31 -12 -3 -20 -14 -20 -27 -1 -20 -2 -19 -23 6
-27 33 -32 68 -11 68 8 0 13 -4 10 -8 -2 -4 -1 -14 3 -21 6 -9 14 -5 32 13 13
14 25 26 27 26 1 0 2 -12 2 -26z m-5284 -56 c-3 -13 -6 -32 -6 -44 0 -13 -7
-21 -17 -21 -27 0 -31 15 -14 52 18 39 47 49 37 13z m5054 -109 c0 -10 -7 -19
-15 -19 -15 0 -21 31 -9 43 11 10 24 -3 24 -24z m-5136 -4 c8 -13 8 -19 -1
-22 -7 -3 -13 -11 -13 -19 0 -8 -4 -14 -10 -14 -5 0 -10 7 -10 16 0 8 -4 12
-10 9 -6 -4 -10 7 -10 24 0 26 3 30 22 28 12 -2 27 -12 32 -22z m126 -9 c0 -2
-7 -9 -15 -16 -12 -10 -15 -10 -15 4 0 9 7 16 15 16 8 0 15 -2 15 -4z m-194
-41 c-6 -16 -46 -21 -46 -6 0 6 10 17 22 26 24 16 35 7 24 -20z m495 -256 c-7
-30 -6 -44 7 -44 6 0 12 -3 12 -7 0 -5 0 -12 0 -18 0 -5 -3 -9 -7 -9 -31 5
-45 -2 -40 -21 6 -24 1 -25 -19 -6 -14 14 -19 81 -9 109 8 19 61 15 56 -4z
m-221 -10 c0 -5 -4 -9 -10 -9 -5 0 -10 7 -10 16 0 8 5 12 10 9 6 -3 10 -10 10
-16z m310 -189 c0 -11 -4 -20 -10 -20 -5 0 -10 9 -10 20 0 11 5 20 10 20 6 0
10 -9 10 -20z m4149 -86 c28 -36 26 -46 -7 -43 -15 2 -32 0 -39 -4 -6 -4 -24
-2 -40 4 l-28 10 35 29 c43 36 53 37 79 4z m-29 -98 c-17 -17 -31 14 -18 38
11 20 11 20 20 -4 5 -15 5 -27 -2 -34z m-3852 -46 c-13 -20 -28 -27 -28 -12 0
10 22 32 32 32 5 0 3 -9 -4 -20z m112 -45 c7 4 6 -1 -1 -13 -10 -16 -16 -18
-26 -10 -7 6 -13 17 -13 25 0 12 3 13 15 3 8 -6 19 -9 25 -5z m3723 -8 c2 -6
-1 -18 -8 -24 -10 -10 -16 -9 -25 2 -6 8 -9 19 -5 25 9 14 32 13 38 -3z m-369
-3 c21 -8 21 -53 0 -61 -23 -8 -36 10 -28 41 7 29 6 28 28 20z m113 -68 c-4
-9 -11 -16 -17 -16 -11 0 -14 33 -3 44 11 10 26 -11 20 -28z m-102 -80 c9 -8
13 -27 10 -46 -6 -49 -20 -56 -34 -18 -7 18 -17 41 -22 50 -6 12 -4 18 9 21 9
3 18 5 20 6 2 0 10 -5 17 -13z m-2985 -6 c0 -5 -2 -10 -4 -10 -3 0 -8 5 -11
10 -3 6 -1 10 4 10 6 0 11 -4 11 -10z m3015 -90 c-3 -5 -10 -10 -16 -10 -5 0
-9 5 -9 10 0 6 7 10 16 10 8 0 12 -4 9 -10z m-696 -64 c9 -11 9 -20 2 -35 -8
-14 -8 -20 1 -23 8 -3 7 -10 -2 -28 -12 -23 -13 -23 -26 -5 -15 20 -18 62 -8
89 8 20 18 20 33 2z m-1969 -36 c7 -17 10 -33 7 -36 -9 -10 -27 6 -27 24 -1
12 -5 10 -15 -8 l-13 -25 -7 27 c-14 54 34 69 55 18z m5 -100 c-3 -6 -1 -10 5
-10 14 0 40 -25 40 -38 0 -15 -64 -10 -83 6 -19 17 -16 54 5 80 9 10 14 8 25
-8 8 -11 11 -25 8 -30z m185 0 c0 -5 -7 -10 -15 -10 -8 0 -15 5 -15 10 0 6 7
10 15 10 8 0 15 -4 15 -10z m1743 -17 c-17 -25 -36 -22 -26 5 5 14 3 15 -8 5
-17 -17 -30 -16 -23 1 3 8 19 14 39 13 32 -1 32 -2 18 -24z m-1042 0 c13 -16
12 -17 -3 -4 -10 7 -18 15 -18 17 0 8 8 3 21 -13z m1096 -18 c0 -8 -6 -15 -14
-15 -7 0 -13 9 -13 20 0 12 5 17 13 14 8 -3 14 -11 14 -19z m-1867 -6 c0 -12
-19 -21 -30 -14 -6 4 -8 10 -6 14 7 10 36 10 36 0z m157 -12 c3 -4 1 -7 -5 -7
-7 0 -12 -9 -12 -20 0 -11 6 -20 13 -20 8 0 8 -3 -2 -9 -16 -10 -71 6 -71 21
0 24 20 44 44 43 14 -1 29 -5 33 -8z m463 -12 c0 -34 -32 -50 -54 -26 -16 17
-15 19 16 34 18 9 34 17 36 17 1 0 2 -11 2 -25z m1074 -51 c3 -8 2 -12 -4 -9
-6 3 -10 10 -10 16 0 14 7 11 14 -7z m-435 -18 c15 -18 -4 -32 -23 -17 -7 6
-16 8 -19 4 -4 -3 -7 -2 -7 4 0 25 31 31 49 9z m-1109 -17 c0 -6 -4 -7 -10 -4
-5 3 -10 11 -10 16 0 6 5 7 10 4 6 -3 10 -11 10 -16z m240 -18 c0 -5 -7 -11
-15 -15 -15 -5 -20 5 -8 17 9 10 23 9 23 -2z m844 -20 c-9 -9 -34 -9 -40 0
-11 18 6 29 26 17 11 -7 17 -14 14 -17z m-848 -22 c3 -6 2 -15 -4 -21 -6 -6
-11 -2 -15 11 -5 22 7 29 19 10z m384 -13 c-6 -8 -18 -12 -26 -9 -23 9 -16 23
12 23 22 0 24 -2 14 -14z"/>
<path d="M3280 3565 c0 -11 82 -200 122 -280 67 -133 89 -168 101 -156 16 16
27 13 27 -7 0 -26 25 -58 34 -43 4 6 -8 37 -27 69 -19 31 -47 81 -61 110 -15
28 -31 52 -36 52 -6 0 -10 8 -10 18 0 9 -22 67 -49 127 -43 96 -52 110 -75
113 -14 2 -26 1 -26 -3z"/>
<path d="M3770 3563 c1 -5 24 -53 53 -108 39 -75 56 -99 70 -97 11 2 21 -6 27
-23 5 -14 14 -25 20 -25 6 0 9 3 7 8 -2 4 -26 45 -52 92 -26 47 -52 87 -56 88
-5 2 -9 14 -9 26 0 12 -5 27 -12 34 -13 13 -48 16 -48 5z"/>
<path d="M3893 3560 c-27 -11 -29 -30 -8 -70 9 -17 26 -31 43 -35 34 -7 52
-39 52 -93 0 -47 22 -79 60 -87 30 -7 60 -46 60 -78 0 -8 6 -17 14 -20 9 -4
12 -14 9 -27 -4 -13 0 -26 8 -31 24 -15 38 -10 45 17 5 18 9 22 15 13 4 -7 4
-19 0 -27 -5 -9 0 -22 14 -36 12 -12 25 -41 28 -63 8 -47 36 -73 77 -73 14 0
31 -5 36 -10 17 -17 46 -1 38 22 -5 18 -4 19 18 7 14 -7 18 -14 10 -17 -6 -2
-12 -10 -12 -18 0 -8 -4 -14 -10 -14 -18 0 -11 -57 11 -84 15 -19 30 -26 53
-26 42 0 82 -31 91 -69 10 -48 36 -63 98 -59 l54 3 12 -42 c18 -60 41 -77 107
-78 40 0 58 -5 65 -17 5 -8 25 -32 45 -52 28 -28 41 -35 58 -29 42 14 69 5
106 -35 42 -45 71 -58 99 -43 34 19 58 12 106 -29 45 -39 87 -51 100 -30 3 6
17 10 31 10 15 0 24 6 24 15 0 29 37 17 43 -14 3 -16 13 -36 22 -45 20 -20 78
-21 94 -2 16 19 70 10 96 -15 31 -28 81 -35 103 -15 33 29 73 30 111 2 19 -14
44 -26 56 -26 24 0 67 28 60 39 -9 15 82 5 105 -12 33 -23 45 -22 94 13 34 24
51 30 83 28 23 -2 39 -6 37 -10 -2 -4 5 -9 15 -13 41 -13 98 39 93 85 l-3 25
20 -22 c21 -25 41 -32 21 -8 -19 23 -1 18 32 -10 42 -35 74 -32 114 12 18 20
31 40 28 45 -8 12 54 10 75 -4 24 -15 55 -3 47 18 -8 21 1 34 19 27 18 -6 20
-29 3 -36 -10 -4 -10 -6 0 -6 7 -1 21 12 30 29 21 36 61 54 101 45 17 -3 39
-4 50 0 23 7 36 52 21 70 -8 9 -8 15 0 20 5 3 10 15 10 26 0 10 5 19 10 19 6
0 10 -13 10 -29 l0 -30 34 14 c18 8 36 12 39 9 3 -3 16 2 30 11 18 11 27 13
32 5 10 -17 32 6 40 41 8 34 48 59 95 59 26 0 30 4 30 26 0 21 4 24 20 19 15
-5 20 -2 20 13 0 29 55 72 91 72 35 0 79 39 79 70 0 37 19 59 63 71 56 16 77
36 77 71 0 44 17 67 63 87 55 24 72 45 74 93 1 41 26 78 50 78 7 0 27 14 43
30 26 27 29 36 24 70 -5 32 -3 42 17 59 113 99 116 111 30 111 -42 0 -60 -4
-64 -14 -3 -8 -15 -14 -27 -13 -12 1 -19 6 -16 14 4 10 -10 13 -53 13 -69 0
-86 -14 -76 -60 6 -25 2 -37 -16 -56 -12 -13 -28 -24 -34 -24 -24 0 -55 -46
-55 -82 0 -28 -7 -42 -26 -57 -15 -12 -33 -21 -40 -21 -24 0 -54 -39 -54 -69
0 -17 -5 -33 -11 -37 -6 -3 -9 -15 -6 -25 6 -21 -8 -26 -16 -6 -3 6 -8 -3 -12
-21 -10 -43 -25 -51 -25 -13 0 17 -3 31 -8 31 -19 0 -52 -33 -52 -52 0 -24
-26 -73 -59 -110 -29 -33 -41 -35 -41 -10 0 10 -3 22 -7 25 -10 11 -43 -24
-43 -45 0 -18 -20 -42 -58 -68 -12 -8 -22 -24 -22 -35 -1 -19 -1 -19 -11 -1
-9 14 -8 20 2 27 23 14 1 23 -26 11 -15 -7 -33 -28 -41 -47 -16 -40 -39 -55
-86 -56 -18 0 -27 -3 -20 -6 6 -2 9 -9 6 -15 -4 -6 -1 -13 5 -17 17 -11 2 -43
-16 -36 -11 3 -13 1 -9 -10 3 -8 1 -15 -5 -15 -12 0 -28 41 -22 58 3 6 0 12
-5 12 -6 0 -14 -9 -17 -20 -9 -28 -42 -43 -79 -37 -43 6 -69 -5 -73 -33 -2
-14 -10 -28 -18 -33 -9 -4 -13 -12 -10 -18 4 -5 -1 -12 -10 -16 -10 -3 -20 -1
-24 6 -4 6 -30 14 -57 17 -46 6 -51 4 -87 -31 -29 -28 -43 -36 -60 -31 -70 21
-82 19 -120 -17 -20 -19 -37 -40 -37 -47 0 -13 -28 -39 -42 -40 -4 0 -5 13 -2
29 7 33 -15 51 -61 51 -22 0 -25 -3 -19 -25 6 -24 -8 -35 -20 -16 -4 5 -19 4
-37 -2 -25 -10 -35 -9 -60 6 -41 23 -74 22 -108 -4 -32 -23 -79 -20 -102 7
-15 18 -60 18 -85 -1 -32 -24 -94 -14 -116 19 -5 7 -8 6 -8 -4 0 -20 -37 -52
-45 -40 -4 6 -2 10 3 10 14 0 24 32 13 43 -5 5 -21 2 -40 -7 -37 -20 -71 -13
-102 20 -29 31 -37 30 -31 -1 2 -13 1 -33 -3 -42 -6 -16 -8 -16 -25 5 -19 23
-36 28 -42 13 -1 -4 -13 -12 -25 -15 -19 -6 -23 -4 -23 13 0 12 5 21 10 21 6
0 10 -5 10 -11 0 -5 5 -7 10 -4 6 3 10 11 10 17 0 6 -3 8 -6 5 -4 -4 -20 3
-35 14 -16 11 -36 19 -46 17 -14 -2 -17 3 -15 21 2 14 0 21 -6 17 -6 -4 -13
-2 -17 3 -4 7 -15 7 -31 1 -41 -16 -54 -12 -95 30 -37 37 -42 39 -96 38 -36
-1 -58 3 -61 10 -2 7 -10 12 -18 12 -9 0 -13 -5 -9 -12 3 -7 -2 -2 -12 11 -9
13 -17 33 -18 45 0 18 -6 21 -47 21 -25 0 -50 3 -54 7 -4 4 -13 3 -19 -2 -13
-11 -45 -3 -45 11 0 4 7 12 16 17 21 11 11 48 -17 62 -30 17 -41 3 -24 -30 8
-16 15 -34 15 -40 0 -21 -26 -9 -44 20 -13 22 -23 29 -36 25 -10 -3 -21 -1
-25 5 -4 6 -17 15 -30 20 -17 6 -22 14 -18 29 3 12 -4 33 -17 51 -18 25 -19
30 -5 30 9 0 14 4 11 9 -3 5 -14 7 -24 4 -20 -5 -72 32 -72 52 0 13 -27 30
-43 26 -4 -1 -3 7 3 18 15 29 14 30 -30 37 -45 7 -70 34 -70 74 0 32 -33 70
-60 70 -31 0 -60 36 -60 73 0 40 -24 77 -50 77 -33 0 -60 39 -60 87 0 71 -20
83 -137 82 -54 0 -108 -4 -120 -9z m63 -45 c19 -19 8 -41 -12 -24 -14 11 -20
39 -8 39 3 0 12 -7 20 -15z m3946 -41 c9 9 19 16 21 16 9 0 1 -31 -10 -38 -5
-4 -12 -14 -15 -22 -3 -11 -9 -8 -22 12 -10 15 -14 33 -10 39 5 9 9 8 14 -5 6
-17 7 -17 22 -2z m-3766 -40 c-3 -9 -6 -22 -6 -30 0 -8 -7 -14 -15 -14 -17 0
-18 4 -9 38 4 12 13 22 21 22 10 0 13 -6 9 -16z m-61 -74 c3 -5 0 -19 -8 -30
-13 -18 -15 -19 -21 -5 -10 27 -7 45 8 45 8 0 18 -4 21 -10z m3685 -5 c0 -8
-4 -15 -10 -15 -5 0 -10 7 -10 15 0 8 5 15 10 15 6 0 10 -7 10 -15z m-3600
-15 c0 -5 -4 -10 -10 -10 -5 0 -10 5 -10 10 0 6 5 10 10 10 6 0 10 -4 10 -10z
m-130 -15 c0 -8 -7 -15 -15 -15 -16 0 -20 12 -8 23 11 12 23 8 23 -8z m334
-181 c9 -3 16 -15 16 -25 0 -10 5 -19 10 -19 6 0 10 -4 10 -10 0 -5 -9 -10
-20 -10 -12 0 -20 -7 -20 -17 -1 -17 -2 -17 -13 -1 -11 14 -12 88 -2 88 2 0
10 -3 19 -6z m3320 -21 c-4 -14 -2 -23 5 -23 6 0 11 -4 11 -10 0 -5 -9 -10
-20 -10 -14 0 -18 -5 -13 -17 6 -16 5 -16 -10 -4 -30 24 -19 91 13 88 15 -1
18 -7 14 -24z m-3247 -135 c-3 -8 -6 -5 -6 6 -1 11 2 17 5 13 3 -3 4 -12 1
-19z m2987 -60 c19 -27 11 -41 -15 -28 -13 7 -19 7 -19 0 0 -13 -11 -13 -30 0
-13 9 -11 13 10 30 32 25 36 25 54 -2z m-17 -64 c-9 -9 -28 6 -21 18 4 6 10 6
17 -1 6 -6 8 -13 4 -17z m-2775 -46 c-7 -7 -12 -8 -12 -2 0 6 3 14 7 17 3 4 9
5 12 2 2 -3 -1 -11 -7 -17z m78 -39 c0 -6 -4 -7 -10 -4 -5 3 -10 11 -10 16 0
6 5 7 10 4 6 -3 10 -11 10 -16z m2673 15 c9 -9 -4 -35 -14 -28 -5 3 -9 12 -9
20 0 14 12 19 23 8z m-246 -20 c8 -20 -13 -42 -27 -28 -12 12 -3 44 11 44 5 0
12 -7 16 -16z m73 -28 c0 -8 -4 -18 -10 -21 -5 -3 -10 3 -10 14 0 12 5 21 10
21 6 0 10 -6 10 -14z m-76 -68 c3 -7 7 -27 10 -45 4 -25 2 -31 -9 -26 -15 5
-36 62 -28 76 7 11 23 8 27 -5z m-478 -140 c-2 -18 -4 -37 -5 -41 0 -5 -5 -5
-11 -2 -17 10 -12 75 5 75 11 0 14 -9 11 -32z m-1416 1 c7 -11 8 -24 4 -27 -4
-4 -9 -2 -11 5 -2 7 -11 9 -19 6 -14 -5 -20 18 -7 30 11 12 22 8 33 -14z m77
-11 c9 22 19 13 17 -15 -1 -16 -3 -34 -3 -40 -2 -24 -21 -13 -35 20 -14 34
-10 59 6 36 7 -11 11 -11 15 -1z m-77 -38 c0 -5 0 -12 0 -16 -1 -3 9 -14 22
-24 13 -11 21 -20 18 -20 -33 -8 -46 -7 -57 2 -14 11 -18 50 -6 61 10 10 23 8
23 -3z m1390 -35 c-7 -9 -16 -12 -19 -8 -4 4 -10 11 -15 16 -5 4 3 7 19 7 24
0 26 -2 15 -15z m40 -16 c0 -5 -4 -9 -10 -9 -5 0 -10 7 -10 16 0 8 5 12 10 9
6 -3 10 -10 10 -16z m-1346 -10 c-6 -11 -24 -2 -24 11 0 5 7 7 15 4 8 -4 12
-10 9 -15z m109 -19 c-8 -33 -8 -33 -32 -20 -26 14 -14 46 18 46 17 0 19 -5
14 -26z m328 -13 c-8 -8 -14 -7 -23 2 -11 10 -9 15 7 27 18 13 20 13 23 -2 2
-9 -1 -21 -7 -27z m473 -26 c8 -13 -3 -19 -24 -14 -11 3 -17 9 -14 14 7 11 31
12 38 0z m-624 -25 c0 -3 -4 -8 -10 -11 -5 -3 -10 -1 -10 4 0 6 5 11 10 11 6
0 10 -2 10 -4z m610 -12 c0 -2 -9 -4 -21 -4 -11 0 -18 4 -14 10 5 8 35 3 35
-6z m-615 -24 c3 -5 1 -10 -4 -10 -6 0 -11 5 -11 10 0 6 2 10 4 10 3 0 8 -4
11 -10z m280 0 c-3 -5 -13 -10 -21 -10 -8 0 -12 5 -9 10 3 6 13 10 21 10 8 0
12 -4 9 -10z"/>
<path d="M8097 3495 c-78 -159 -205 -344 -336 -493 -41 -47 -72 -91 -75 -108
-2 -16 -5 -31 -5 -33 -1 -2 -8 2 -16 9 -12 10 -25 2 -75 -42 l-61 -53 32 -3
c29 -3 42 6 126 90 175 172 327 379 438 591 30 59 55 109 55 112 0 3 -10 5
-23 5 -18 0 -30 -14 -60 -75z"/>
<path d="M8600 3548 c-150 -356 -292 -585 -523 -846 -46 -53 -67 -85 -73 -115
-9 -41 -30 -54 -28 -17 0 13 -21 -1 -78 -52 -43 -39 -76 -73 -73 -76 3 -3 19
-6 35 -7 27 -2 46 15 163 135 134 137 200 215 293 345 100 140 199 311 249
430 9 22 21 48 26 57 5 10 9 36 9 57 0 41 15 64 22 34 3 -13 9 -9 20 17 14 32
14 36 0 48 -22 17 -31 15 -42 -10z"/>
<path d="M8710 3561 c0 -6 5 -13 10 -16 6 -3 10 1 10 9 0 9 -4 16 -10 16 -5 0
-10 -4 -10 -9z"/>
<path d="M3932 3291 c-11 -6 -4 -22 29 -72 53 -78 154 -204 230 -288 48 -52
58 -59 64 -44 6 15 9 13 16 -13 10 -35 108 -132 220 -217 44 -33 49 -34 47 -1
-2 16 -16 35 -38 51 -19 15 -63 51 -97 81 -35 29 -63 49 -63 42 0 -6 -5 -8
-10 -5 -6 4 -8 11 -4 16 3 6 -28 45 -69 87 -89 91 -164 182 -242 292 -58 83
-61 85 -83 71z"/>
<path d="M3562 3059 c-12 -5 -22 -12 -22 -16 0 -16 170 -245 253 -340 108
-125 137 -153 137 -130 0 9 5 17 10 17 6 0 10 -9 10 -20 0 -11 5 -20 10 -20 6
0 10 -8 10 -19 0 -11 39 -53 98 -104 139 -123 191 -161 197 -145 10 29 -4 50
-76 109 -40 34 -90 77 -109 95 -39 37 -56 43 -46 18 3 -9 2 -12 -5 -9 -6 4 -8
13 -6 19 3 7 -31 50 -75 96 -102 107 -228 260 -304 371 -53 76 -62 85 -82 78z"/>
<path d="M4666 2885 c4 -8 11 -15 16 -15 6 0 5 6 -2 15 -7 8 -14 15 -16 15 -2
0 -1 -7 2 -15z"/>
<path d="M7450 2708 c-54 -43 -194 -137 -289 -196 -17 -10 -20 -16 -11 -22 7
-5 9 -13 4 -21 -19 -32 260 148 351 226 36 30 38 36 25 49 -13 13 -22 9 -80
-36z"/>
<path d="M4560 2650 c0 -20 24 -60 36 -60 7 0 17 -6 21 -13 8 -12 50 -41 130
-91 41 -25 42 -25 48 -5 4 11 5 22 3 23 -64 46 -238 153 -238 146z"/>
<path d="M5450 2535 c0 -8 2 -15 4 -15 2 0 6 7 10 15 3 8 1 15 -4 15 -6 0 -10
-7 -10 -15z"/>
<path d="M4840 2463 c0 -16 -2 -16 -11 -3 -9 13 -10 13 -7 0 6 -21 85 -63 104
-56 24 9 12 28 -32 53 -47 27 -54 28 -54 6z"/>
<path d="M7087 2467 c-11 -29 -9 -43 4 -30 6 6 9 19 7 29 -3 18 -4 18 -11 1z"/>
<path d="M6950 2407 c-35 -16 -41 -22 -25 -25 11 -2 22 -8 25 -13 3 -4 24 1
48 11 30 14 40 23 36 34 -8 21 -29 19 -84 -7z m60 -2 c0 -8 -4 -15 -10 -15 -5
0 -10 7 -10 15 0 8 5 15 10 15 6 0 10 -7 10 -15z"/>
<path d="M7735 2379 c-64 -53 -259 -188 -337 -233 -27 -15 -48 -29 -48 -32 0
-3 5 -2 12 2 8 5 9 0 6 -14 -4 -15 -2 -22 8 -22 22 0 186 104 314 199 150 111
148 108 124 131 -18 18 -21 17 -79 -31z"/>
<path d="M4962 2399 c-14 -21 -19 -18 88 -62 111 -45 190 -70 197 -63 3 3 -1
8 -10 12 -9 3 -13 11 -11 19 5 12 -54 40 -64 30 -3 -3 -10 -1 -16 5 -7 5 -48
24 -92 43 -76 32 -82 33 -92 16z"/>
<path d="M6753 2331 c-59 -20 -103 -41 -103 -49 0 -7 -7 -15 -15 -18 -8 -4
-15 -10 -15 -14 0 -5 28 0 63 11 113 34 177 61 177 75 0 8 5 14 10 14 6 0 10
5 10 10 0 14 -13 11 -127 -29z"/>
<path d="M7855 2340 c3 -5 8 -10 11 -10 2 0 4 5 4 10 0 6 -5 10 -11 10 -5 0
-7 -4 -4 -10z"/>
<path d="M4300 2279 c6 -13 13 -32 16 -42 4 -10 13 -16 20 -13 8 3 21 -6 30
-19 9 -14 24 -25 34 -25 10 0 20 -6 23 -14 3 -7 36 -30 72 -51 52 -29 69 -34
75 -24 13 20 -5 44 -57 75 -27 15 -81 49 -121 76 -93 63 -105 68 -92 37z"/>
<path d="M5270 2293 c0 -12 18 -38 27 -39 4 0 16 -4 26 -8 9 -5 24 -6 32 -2 8
3 15 1 15 -3 0 -8 53 -22 193 -49 45 -9 47 -9 47 13 0 19 -7 24 -46 30 -25 3
-99 20 -165 36 -135 33 -129 32 -129 22z"/>
<path d="M6598 2283 c-22 -6 -23 -19 -3 -27 9 -3 18 1 21 9 4 8 10 12 15 9 5
-3 9 0 9 5 0 11 -11 12 -42 4z"/>
<path d="M6545 2261 c-3 -5 -1 -12 5 -16 5 -3 10 1 10 9 0 18 -6 21 -15 7z"/>
<path d="M6340 2227 c-95 -16 -162 -20 -384 -21 -148 -1 -262 -2 -253 -4 9 -2
17 -9 17 -16 0 -8 20 -16 53 -20 77 -9 137 -7 137 4 0 6 5 10 11 10 5 0 7 -4
4 -10 -8 -13 177 -13 303 0 101 11 252 37 260 45 9 8 -7 35 -20 34 -7 -1 -65
-11 -128 -22z"/>
<path d="M4160 2218 c0 -9 5 -20 11 -23 17 -11 18 -2 3 19 -12 17 -14 17 -14
4z"/>
<path d="M5627 2213 c-11 -10 -8 -33 4 -33 11 0 39 24 39 34 0 8 -35 7 -43 -1z"/>
<path d="M4617 2085 c-9 -7 -17 -16 -17 -20 0 -4 7 -1 16 6 15 12 16 11 10 -6
-5 -17 3 -25 47 -47 41 -20 56 -23 68 -14 14 10 14 13 0 27 -9 8 -36 27 -61
41 -38 22 -48 24 -63 13z"/>
<path d="M7285 2069 c-7 -20 0 -37 10 -27 3 3 7 15 10 27 5 27 -12 28 -20 0z"/>
<path d="M7185 2030 c-3 -5 -1 -10 4 -10 6 0 11 -7 11 -15 0 -22 -21 -18 -27
4 -5 19 -6 19 -49 -2 -43 -21 -49 -32 -16 -32 9 0 16 -6 14 -13 -2 -12 13 -8
91 28 26 13 26 14 11 32 -19 20 -30 23 -39 8z"/>
<path d="M4772 1996 c-10 -23 -8 -25 76 -60 154 -63 262 -97 262 -80 0 8 -3
13 -7 13 -20 -3 -24 2 -14 15 10 12 5 16 -26 27 -21 7 -45 13 -53 14 -8 1 -25
7 -37 13 -18 10 -184 82 -189 82 0 0 -6 -11 -12 -24z"/>
<path d="M6902 1921 c-90 -32 -131 -50 -127 -59 2 -7 -7 -18 -20 -24 -44 -20
-27 -27 27 -12 119 36 243 81 244 90 0 5 4 17 9 27 4 10 6 19 4 21 -2 2 -64
-18 -137 -43z"/>
<path d="M5130 1885 c0 -19 27 -55 41 -55 10 0 21 -5 25 -11 3 -6 19 -9 35 -5
15 3 29 1 31 -5 4 -11 85 -32 206 -53 l72 -13 0 28 c0 24 -4 29 -25 29 -31 0
-226 42 -317 69 -38 11 -68 18 -68 16z"/>
<path d="M6718 1863 c-31 -5 -35 -15 -14 -32 11 -9 17 -8 28 8 8 12 18 18 21
14 4 -3 7 -1 7 5 0 7 -3 11 -7 11 -5 -1 -20 -4 -35 -6z"/>
<path d="M6650 1825 c0 -8 5 -15 10 -15 6 0 10 7 10 15 0 8 -4 15 -10 15 -5 0
-10 -7 -10 -15z"/>
<path d="M6495 1810 c-187 -38 -589 -57 -785 -37 -55 5 -70 4 -57 -3 9 -6 17
-17 17 -25 0 -18 22 -23 138 -28 70 -3 92 -2 89 8 -3 6 1 12 9 12 7 0 11 -4 8
-8 -11 -18 55 -21 219 -10 169 10 345 32 420 52 33 9 36 12 27 29 -11 21 -22
22 -85 10z"/>
<path d="M5563 1773 c-3 -10 -8 -21 -10 -25 -2 -5 7 -7 21 -6 13 1 23 5 20 9
-2 4 0 10 6 14 17 11 11 25 -10 25 -11 0 -23 -8 -27 -17z"/>
<path d="M5220 1719 c0 -5 5 -7 10 -4 6 3 10 8 10 11 0 2 -4 4 -10 4 -5 0 -10
-5 -10 -11z"/>
<path d="M5185 1709 c-4 -6 -3 -15 3 -21 6 -6 11 -4 15 6 7 18 -9 31 -18 15z"/>
</g>
</svg>
