<?xml version="1.0" standalone="no"?>
<!DOCTYPE svg PUBLIC "-//W3C//DTD SVG 20010904//EN"
 "http://www.w3.org/TR/2001/REC-SVG-20010904/DTD/svg10.dtd">
<svg version="1.0" xmlns="http://www.w3.org/2000/svg"
 width="1280.000000pt" height="995.000000pt" viewBox="0 0 1280.000000 995.000000"
 preserveAspectRatio="xMidYMid meet">
<metadata>
Created by potrace 1.15, written by Peter Selinger 2001-2017
</metadata>
<g transform="translate(0.000000,995.000000) scale(0.100000,-0.100000)"
fill="#000000" stroke="none">
<path d="M5509 9766 c-2 -2 -44 -6 -92 -10 -89 -6 -197 -17 -340 -36 -42 -5
-97 -7 -120 -4 -42 6 -157 -21 -335 -78 -63 -20 -226 -113 -337 -193 -142
-102 -379 -358 -457 -495 -72 -126 -229 -454 -247 -515 -51 -175 -62 -221 -78
-322 -11 -75 -16 -181 -17 -348 0 -205 3 -259 22 -367 26 -149 62 -306 98
-427 71 -236 243 -615 360 -793 30 -45 54 -84 54 -88 0 -8 -76 -80 -114 -109
l-30 -22 -42 42 c-41 41 -44 42 -93 36 -27 -3 -91 -20 -142 -37 -90 -30 -94
-30 -125 -14 -48 26 -107 14 -238 -49 -145 -70 -333 -182 -346 -207 -5 -10
-10 -34 -10 -53 0 -40 -19 -54 -195 -147 -55 -29 -134 -75 -175 -103 -260
-174 -660 -586 -864 -890 -146 -218 -270 -487 -464 -1007 -180 -483 -319 -935
-412 -1345 -69 -305 -85 -426 -101 -784 -16 -369 3 -620 61 -792 25 -74 83
-191 102 -206 9 -7 163 -8 488 -2 261 4 983 8 1604 8 1039 1 1131 2 1148 17
30 28 21 59 -43 144 -136 181 -384 625 -377 675 2 13 12 21 28 23 39 5 193 53
217 68 26 16 53 68 53 103 0 44 13 55 51 43 19 -6 70 -13 114 -16 66 -5 88
-12 136 -40 31 -18 87 -46 125 -60 38 -15 98 -40 134 -56 103 -45 203 -78 365
-122 124 -33 173 -41 286 -47 76 -4 143 -12 150 -18 22 -18 134 -36 185 -30
30 3 60 16 87 36 23 17 63 43 89 57 44 25 102 85 141 146 10 16 17 47 17 76
l0 49 162 7 c191 9 188 10 205 -99 15 -101 43 -155 127 -241 66 -68 74 -74
112 -74 242 0 696 482 840 893 25 73 27 84 17 147 -13 81 -60 156 -196 310
-136 154 -275 251 -391 271 -140 24 -282 -5 -471 -97 -55 -27 -131 -62 -169
-78 -38 -16 -80 -40 -94 -53 l-25 -23 -292 0 -292 0 -43 66 c-54 84 -159 214
-177 221 -20 8 -35 47 -43 113 -4 30 -30 169 -58 309 -28 139 -56 290 -62 335
-11 84 -17 121 -74 476 -21 128 -39 290 -46 401 -7 126 -19 221 -35 295 -14
60 -25 127 -25 149 0 97 -60 346 -91 381 -19 20 -19 21 3 41 46 41 76 54 129
54 61 1 138 -15 178 -35 14 -8 112 -44 216 -81 105 -37 235 -85 290 -107 154
-60 392 -115 667 -154 l247 -36 123 93 c153 115 538 496 585 579 51 89 65 179
73 452 0 3 53 4 118 1 100 -5 124 -3 156 12 38 18 106 96 106 123 0 8 15 40
34 71 19 31 45 83 59 116 44 106 109 318 115 375 3 30 11 64 18 75 7 11 15 45
19 76 8 68 0 78 -111 140 l-71 39 18 56 c24 71 62 252 90 425 18 111 22 177
23 384 1 220 -2 265 -22 375 -47 257 -64 327 -92 389 -17 35 -30 70 -30 78 0
21 -101 173 -174 263 -149 183 -485 473 -638 551 -302 153 -747 249 -1154 249
-94 0 -173 -2 -175 -4z m-1255 -7070 c36 -57 66 -110 66 -118 0 -8 5 -19 10
-24 10 -10 -117 -24 -222 -24 -37 0 -38 1 -38 38 0 49 86 232 110 232 4 0 38
-47 74 -104z"/>
<path d="M8996 8348 c-9 -12 -16 -27 -16 -32 0 -6 -36 -148 -80 -316 -85 -325
-140 -572 -140 -631 0 -43 15 -58 91 -88 79 -31 119 -26 141 19 97 197 343
711 368 770 18 41 39 84 46 95 19 27 17 79 -3 98 -10 8 -63 27 -118 41 -55 14
-127 34 -159 46 -77 26 -111 26 -130 -2z"/>
<path d="M9592 8018 c-10 -13 -101 -261 -218 -596 -35 -101 -64 -196 -64 -211
0 -69 146 -123 185 -68 37 50 214 365 306 541 103 196 116 238 82 268 -25 22
-201 78 -244 78 -20 0 -41 -6 -47 -12z"/>
<path d="M9983 7638 c-12 -13 -52 -108 -89 -213 -79 -223 -87 -284 -43 -317
36 -27 110 -35 127 -15 34 41 222 425 222 453 0 37 -10 47 -91 85 -73 35 -99
36 -126 7z"/>
<path d="M8758 7124 c-69 -37 -103 -168 -55 -211 35 -33 62 -43 112 -43 40 0
52 5 81 34 30 30 34 40 34 89 0 50 -3 58 -43 101 -47 50 -79 58 -129 30z"/>
<path d="M9197 6980 c-35 -41 -37 -97 -4 -128 19 -18 35 -22 83 -22 53 0 63 3
88 29 22 23 27 36 24 66 -4 50 -37 74 -109 82 -53 5 -56 4 -82 -27z"/>
<path d="M9697 6892 c-20 -22 -23 -92 -5 -110 7 -7 33 -12 58 -12 55 0 80 21
80 68 0 59 -94 97 -133 54z"/>
<path d="M8705 5386 c-52 -23 -81 -66 -145 -211 -106 -239 -219 -613 -324
-1070 -14 -60 -52 -227 -85 -370 -88 -383 -130 -593 -235 -1170 -162 -891
-171 -956 -196 -1400 -5 -93 -15 -214 -21 -269 l-12 -99 -1767 6 c-1977 8
-1797 15 -1788 -67 3 -24 17 -67 31 -97 14 -30 30 -70 35 -89 18 -59 59 -151
75 -167 14 -14 125 -15 1099 -3 1146 14 2810 9 3003 -9 99 -9 283 -23 690 -51
252 -17 447 -29 640 -40 105 -5 280 -15 390 -21 141 -7 232 -7 310 0 61 6 162
11 226 11 98 0 118 3 131 18 8 9 32 89 52 177 127 535 166 667 461 1585 173
536 258 787 399 1172 172 470 219 593 271 708 84 186 110 299 117 493 2 66 -1
80 -17 96 -32 30 -782 322 -1115 434 -458 154 -1197 351 -1525 406 -240 41
-634 56 -700 27z"/>
</g>
</svg>
