<?xml version="1.0" standalone="no"?>
<!DOCTYPE svg PUBLIC "-//W3C//DTD SVG 20010904//EN"
 "http://www.w3.org/TR/2001/REC-SVG-20010904/DTD/svg10.dtd">
<svg version="1.0" xmlns="http://www.w3.org/2000/svg"
 width="1280.000000pt" height="1280.000000pt" viewBox="0 0 1280.000000 1280.000000"
 preserveAspectRatio="xMidYMid meet">
<metadata>
Created by potrace 1.15, written by Peter Selinger 2001-2017
</metadata>
<g transform="translate(0.000000,1280.000000) scale(0.100000,-0.100000)"
fill="#000000" stroke="none">
<path d="M6264 11241 c-81 -38 -146 -51 -256 -51 -113 0 -156 -18 -226 -95
-64 -70 -84 -115 -126 -282 -19 -76 -40 -154 -46 -173 -5 -19 -13 -89 -16
-155 -7 -147 -18 -210 -51 -281 -21 -47 -25 -66 -21 -132 5 -101 36 -168 122
-262 113 -123 141 -187 181 -419 27 -152 33 -344 14 -423 -13 -50 -92 -118
-194 -168 -160 -77 -526 -181 -705 -200 -223 -23 -286 -56 -481 -250 -122
-120 -150 -154 -165 -195 -9 -27 -42 -104 -72 -170 -29 -66 -65 -154 -79 -195
-37 -113 -84 -194 -179 -310 -47 -58 -102 -130 -123 -160 -33 -48 -236 -458
-271 -548 -7 -17 -28 -46 -47 -62 -43 -38 -104 -41 -154 -7 -19 13 -115 67
-214 122 -277 152 -427 243 -720 438 -390 260 -468 321 -630 492 -86 91 -194
192 -280 261 -171 136 -290 254 -349 344 -25 37 -52 70 -61 74 -26 10 -134 7
-155 -4 -19 -10 -40 -84 -40 -139 0 -15 -27 -82 -60 -148 -72 -144 -95 -225
-87 -304 5 -41 2 -61 -9 -77 -19 -28 -27 -27 -91 3 -79 36 -145 105 -246 255
l-91 134 -14 -44 c-18 -59 -10 -145 18 -201 13 -24 50 -84 82 -132 33 -49 66
-106 73 -128 l15 -40 -56 -25 c-62 -27 -62 -24 0 -92 56 -61 70 -64 267 -63
l178 2 42 -28 42 -28 294 -12 c161 -6 309 -17 328 -23 69 -23 166 -108 485
-430 179 -180 381 -373 449 -430 68 -57 166 -143 218 -192 51 -48 195 -178
320 -288 174 -153 236 -203 268 -211 23 -7 84 -9 145 -7 127 6 196 28 271 88
30 24 87 58 128 77 88 40 193 107 251 160 24 20 72 76 109 123 36 47 123 153
193 237 228 273 258 319 349 552 37 95 58 136 76 148 15 10 27 13 31 7 4 -6
22 -31 40 -57 47 -67 157 -410 206 -643 63 -300 73 -469 37 -624 -12 -52 -46
-239 -76 -416 -41 -245 -61 -340 -85 -402 -36 -93 -51 -112 -88 -112 -44 0
-369 114 -508 178 -134 62 -190 80 -413 131 -74 18 -140 36 -146 41 -6 5 -76
28 -155 51 -135 40 -153 43 -270 43 -146 1 -240 -22 -312 -77 -66 -50 -174
-182 -210 -255 -32 -64 -33 -72 -37 -207 -5 -207 12 -263 124 -420 130 -181
226 -280 453 -469 333 -274 305 -257 756 -481 396 -197 536 -271 536 -285 0
-4 -10 -16 -22 -27 -23 -20 -217 -58 -427 -83 -108 -13 -139 -31 -271 -161
-107 -106 -114 -117 -178 -274 -11 -27 -37 -88 -58 -135 -65 -145 -57 -252 24
-342 80 -89 177 -110 497 -112 178 0 216 3 340 26 77 15 222 34 322 43 216 18
306 35 424 81 49 19 150 47 226 64 76 17 167 40 203 51 143 47 489 191 680
283 89 43 129 45 268 15 143 -31 210 -51 498 -150 144 -50 320 -105 392 -124
82 -21 160 -49 209 -74 100 -53 176 -67 283 -52 116 15 190 59 236 137 38 64
47 145 34 312 l-10 144 -35 32 c-30 29 -35 40 -35 80 0 60 -6 72 -100 181
-104 123 -120 145 -120 165 0 25 22 32 122 40 81 6 91 10 170 57 45 28 133 81
193 117 221 134 560 446 800 736 150 180 209 260 237 315 11 22 38 63 59 91
26 34 43 70 51 105 10 49 8 62 -16 134 -15 44 -50 127 -78 185 -43 88 -63 117
-127 181 -149 148 -337 206 -486 149 -16 -6 -121 -38 -231 -71 -148 -43 -219
-69 -265 -98 -101 -61 -179 -98 -280 -131 -52 -18 -123 -49 -159 -71 -73 -43
-122 -55 -261 -63 -84 -5 -98 -4 -112 12 -9 9 -37 92 -62 182 -26 91 -69 245
-97 342 -84 302 -89 331 -95 623 -6 330 3 438 52 580 37 108 169 365 235 460
19 27 38 53 42 59 4 6 16 3 31 -7 19 -12 27 -28 32 -67 11 -77 170 -333 316
-505 141 -168 476 -478 654 -606 133 -96 248 -140 368 -141 82 -1 116 12 185
73 25 22 73 48 118 65 87 31 155 77 389 258 94 73 224 173 290 224 66 50 170
135 231 189 565 500 806 695 937 756 64 31 516 185 647 222 117 32 159 55 333
179 130 92 138 100 132 124 -8 34 -4 32 -62 39 -40 4 -53 2 -64 -12 -32 -39
-59 -65 -67 -65 -25 0 -32 60 -32 279 0 188 -3 231 -15 241 -30 25 -49 6 -89
-85 -34 -80 -40 -102 -45 -195 -7 -129 -16 -145 -106 -191 l-66 -34 -23 26
c-17 20 -24 43 -29 97 -8 104 -32 147 -122 227 -57 52 -86 87 -110 135 -40 78
-70 109 -122 120 -72 17 -133 -14 -133 -67 0 -49 -222 -447 -300 -538 -62 -72
-90 -124 -90 -165 0 -17 -6 -43 -14 -58 -25 -48 -271 -259 -436 -374 -93 -65
-170 -107 -957 -530 -84 -45 -233 -82 -305 -75 -31 3 -59 13 -84 32 -72 55
-192 242 -328 513 -58 113 -101 183 -170 272 -104 133 -145 207 -235 422 -48
112 -73 159 -110 201 -27 31 -69 82 -94 114 -25 32 -75 87 -111 121 -111 103
-168 125 -396 152 -270 32 -309 45 -608 207 -269 147 -295 179 -300 387 -9
289 36 487 144 638 101 142 111 222 64 515 -46 278 -106 510 -157 605 -38 71
-102 131 -212 203 -55 35 -117 80 -139 99 -53 49 -100 66 -174 66 -49 0 -77
-7 -124 -29z m5313 -3135 c51 -109 59 -175 30 -233 l-17 -31 -80 82 -80 82 37
102 c24 64 43 101 51 100 7 -2 33 -47 59 -102z m-10411 -31 c28 -16 49 -39 63
-68 24 -50 26 -79 9 -177 -11 -63 -14 -70 -36 -70 -72 0 -122 70 -122 173 0
60 24 167 37 167 3 0 25 -11 49 -25z"/>
</g>
</svg>
